<svg width="24" height="24" viewBox="0 0 24 24" fill="none" xmlns="http://www.w3.org/2000/svg">
<g transform="translate(2, 4)">
<path d="M4.22215 0.309276C4.60173 0.721643 4.60173 1.39022 4.22215 1.80259C1.18454 5.10259 1.18454 10.453 4.22215 13.753C4.60173 14.1653 4.60173 14.8339 4.22215 15.2463C3.84257 15.6586 3.22715 15.6586 2.84757 15.2463C-0.949191 11.1215 -0.949191 4.43401 2.84757 0.309276C3.22715 -0.103092 3.84257 -0.103092 4.22215 0.309276ZM16.5969 0.309276C20.3936 4.43401 20.3936 11.1215 16.5969 15.2463C16.2173 15.6586 15.6019 15.6586 15.2223 15.2463C14.8427 14.8339 14.8427 14.1653 15.2223 13.753C18.2599 10.453 18.2599 5.10259 15.2223 1.80259C14.8427 1.39022 14.8427 0.721643 15.2223 0.309276C15.6019 -0.103092 16.2173 -0.103092 16.5969 0.309276ZM7.10565 3.34337C7.48523 3.75574 7.48523 4.42432 7.10565 4.83669C5.6176 6.45328 5.6176 9.0743 7.10565 10.6909C7.48523 11.1033 7.48523 11.7718 7.10565 12.1842C6.72607 12.5966 6.11065 12.5966 5.73107 12.1842C3.48386 9.74288 3.48386 5.7847 5.73107 3.34337C6.11065 2.931 6.72607 2.931 7.10565 3.34337ZM13.8689 3.34337C16.1161 5.7847 16.1161 9.74288 13.8689 12.1842C13.4894 12.5966 12.8739 12.5966 12.4944 12.1842C12.1148 11.7718 12.1148 11.1033 12.4944 10.6909C13.9824 9.0743 13.9824 6.45328 12.4944 4.83669C12.1148 4.42432 12.1148 3.75574 12.4944 3.34337C12.8739 2.931 13.4894 2.931 13.8689 3.34337Z" fill="#999999"/>
<path d="M11.2569 7.85197C11.2569 6.9772 10.6041 6.26807 9.7989 6.26807C8.99369 6.26807 8.34094 6.9772 8.34094 7.85197C8.34094 8.72673 8.99369 9.43587 9.7989 9.43587C10.6041 9.43587 11.2569 8.72673 11.2569 7.85197Z" fill="#FF453A"/>
</g>
</svg>
