<svg width="24" height="24" viewBox="0 0 24 24" fill="none" xmlns="http://www.w3.org/2000/svg">
<g transform="translate(0.5, 2.5)">
<path d="M4.92584 0.360822C5.36868 0.841917 5.36868 1.62193 4.92584 2.10302C1.38196 5.95303 1.38196 12.1951 4.92584 16.0451C5.36868 16.5262 5.36868 17.3062 4.92584 17.7873C4.483 18.2684 3.76501 18.2684 3.32217 17.7873C-1.10739 12.9751 -1.10739 5.17302 3.32217 0.360822C3.76501 -0.120274 4.483 -0.120274 4.92584 0.360822ZM19.363 0.360822C23.7926 5.17302 23.7926 12.9751 19.363 17.7873C18.9202 18.2684 18.2022 18.2684 17.7593 17.7873C17.3165 17.3062 17.3165 16.5262 17.7593 16.0451C21.3032 12.1951 21.3032 5.95303 17.7593 2.10302C17.3165 1.62193 17.3165 0.841917 17.7593 0.360822C18.2022 -0.120274 18.9202 -0.120274 19.363 0.360822ZM8.28992 3.9006C8.73276 4.38169 8.73276 5.1617 8.28992 5.6428C6.55386 7.52883 6.55386 10.5867 8.28992 12.4727C8.73276 12.9538 8.73276 13.7338 8.28992 14.2149C7.84708 14.696 7.12909 14.696 6.68625 14.2149C4.06451 11.3667 4.06451 6.74882 6.68625 3.9006C7.12909 3.4195 7.84708 3.4195 8.28992 3.9006ZM16.1804 3.9006C18.8022 6.74882 18.8022 11.3667 16.1804 14.2149C15.7376 14.696 15.0196 14.696 14.5768 14.2149C14.1339 13.7338 14.1339 12.9538 14.5768 12.4727C16.3128 10.5867 16.3128 7.52883 14.5768 5.6428C14.1339 5.1617 14.1339 4.38169 14.5768 3.9006C15.0196 3.4195 15.7376 3.4195 16.1804 3.9006Z" fill="black"/>
<path d="M13.1331 9.16063C13.1331 8.14007 12.3716 7.31274 11.4322 7.31274C10.4927 7.31274 9.7312 8.14007 9.7312 9.16063C9.7312 10.1812 10.4927 11.0085 11.4322 11.0085C12.3716 11.0085 13.1331 10.1812 13.1331 9.16063Z" fill="#FF453A"/>
</g>
</svg>
