<svg width="24" height="24" viewBox="0 0 24 24" fill="none" xmlns="http://www.w3.org/2000/svg">
<path d="M11.6667 0C5.23833 0 0 5.23833 0 11.6667C0 14.14 0.793333 16.555 2.25167 18.55L0.21 21.5017C-0.0349999 21.8633 -0.0700001 22.3183 0.14 22.7033C0.338333 23.0883 0.735 23.3333 1.17833 23.3333H11.6783C18.1067 23.3333 23.345 18.095 23.345 11.6667C23.345 5.23833 18.095 0 11.6667 0ZM8.16667 14C6.88333 14 5.83333 12.95 5.83333 11.6667C5.83333 10.3833 6.88333 9.33333 8.16667 9.33333C9.45 9.33333 10.5 10.3833 10.5 11.6667C10.5 12.95 9.45 14 8.16667 14ZM15.1667 14C13.8833 14 12.8333 12.95 12.8333 11.6667C12.8333 10.3833 13.8833 9.33333 15.1667 9.33333C16.45 9.33333 17.5 10.3833 17.5 11.6667C17.5 12.95 16.45 14 15.1667 14Z" fill="black"/>
</svg>
