<svg width="24" height="24" viewBox="0 0 24 24" fill="none" xmlns="http://www.w3.org/2000/svg">
<g transform="translate(1.5, 2)">
<path d="M7 8C6.46957 8 5.96086 8.21071 5.58579 8.58579C5.21071 8.96086 5 9.46957 5 10C5 10.5304 5.21071 11.0391 5.58579 11.4142C5.96086 11.7893 6.46957 12 7 12C7.53043 12 8.03914 11.7893 8.41421 11.4142C8.78929 11.0391 9 10.5304 9 10C9 9.46957 8.78929 8.96086 8.41421 8.58579C8.03914 8.21071 7.53043 8 7 8ZM13 8C12.4696 8 11.9609 8.21071 11.5858 8.58579C11.2107 8.96086 11 9.46957 11 10C11 10.5304 11.2107 11.0391 11.5858 11.4142C11.9609 11.7893 12.4696 12 13 12C13.5304 12 14.0391 11.7893 14.4142 11.4142C14.7893 11.0391 15 10.5304 15 10C15 9.46957 14.7893 8.96086 14.4142 8.58579C14.0391 8.21071 13.5304 8 13 8Z" fill="#999999"/>
<path d="M10 0C4.49 0 0 4.49 0 10C0 12.12 0.68 14.19 1.93 15.9L0.18 18.43C-0.0299999 18.74 -0.0600001 19.13 0.12 19.46C0.29 19.79 0.63 20 1.01 20H10.01C15.52 20 20.01 15.51 20.01 10C20.01 4.49 15.51 0 10 0ZM10 18H2.91L4 16.43C4.26 16.06 4.23 15.55 3.94 15.21C2.69335 13.7606 2.00848 11.9118 2.01 10C2.01 5.59 5.6 2 10.01 2C14.42 2 18.01 5.59 18.01 10C18.01 14.41 14.42 18 10.01 18H10Z" fill="#999999"/>
</g>
</svg>
