<svg width="42" height="42" viewBox="0 0 42 42" fill="none" xmlns="http://www.w3.org/2000/svg">
<path d="M13.6663 27.417H16.4163V29.25C16.4163 29.58 16.5905 29.883 16.8838 30.048C17.024 30.127 17.1825 30.167 17.3434 30.166C17.5043 30.164 17.662 30.12 17.8005 30.038L22.1638 27.417H28.3238C29.3322 27.417 30.1572 26.592 30.1572 25.583V14.5833C30.1572 13.575 29.3322 12.75 28.3238 12.75H13.6663C12.658 12.75 11.833 13.575 11.833 14.5833V25.583C11.833 26.592 12.658 27.417 13.6663 27.417ZM13.6663 14.5833H28.333V25.583H21.9163C21.7513 25.583 21.5863 25.629 21.4488 25.712L18.2497 27.627V26.5C18.2497 25.996 17.8372 25.583 17.333 25.583H13.6663V14.5833Z" fill="currentColor"/>
</svg>
