<svg width="42" height="42" viewBox="0 0 42 42" fill="none" xmlns="http://www.w3.org/2000/svg">
<path d="M21.6047 12.979C21.3388 12.741 20.9447 12.677 20.6238 12.823C20.2938 12.97 20.083 13.3 20.083 13.657V17.324H19.1663C15.1238 17.324 11.833 20.615 11.833 24.657V28.324C11.833 28.709 12.0805 29.057 12.4472 29.186C12.548 29.222 12.6488 29.241 12.7497 29.241C13.0247 29.241 13.2905 29.122 13.4647 28.892L15.2063 26.72C15.7213 26.075 16.3755 25.554 17.1199 25.197C17.8643 24.84 18.6798 24.655 19.5055 24.657H20.0922V28.324C20.0922 28.682 20.303 29.012 20.633 29.158C20.963 29.305 21.348 29.25 21.6138 29.002L29.8638 21.669C30.0563 21.495 30.1755 21.247 30.1755 20.982C30.1755 20.716 30.0655 20.468 29.8638 20.294L21.6047 12.979ZM21.9163 26.289V22.833H19.4963C18.3959 22.831 17.3091 23.077 16.3171 23.553C15.325 24.029 14.4534 24.723 13.7672 25.583L13.6572 25.721V24.667C13.6572 21.632 16.123 19.167 19.1572 19.167H21.9072V15.711L27.8563 21L21.9072 26.289H21.9163Z" fill="currentColor"/>
</svg>
