<svg width="42" height="42" viewBox="0 0 42 42" fill="none" xmlns="http://www.w3.org/2000/svg">
<path d="M22.5833 13.157L24.1965 16.41C24.4165 16.863 25.003 17.297 25.498 17.38L28.4218 17.87C30.2916 18.184 30.7316 19.552 29.3842 20.901L27.1112 23.193C26.7262 23.581 26.5154 24.33 26.6345 24.866L27.2853 27.703C27.7986 29.949 26.6162 30.817 24.6456 29.644L21.9051 28.008C21.4102 27.712 20.5944 27.712 20.0902 28.008L17.3498 29.644C15.3883 30.817 14.1968 29.939 14.71 27.703L15.3608 24.866C15.48 24.33 15.2692 23.581 14.8842 23.193L12.6111 20.901C11.2729 19.552 11.7037 18.184 13.5735 17.87L16.4973 17.38C16.9831 17.297 17.5697 16.863 17.7897 16.41L19.4028 13.157C20.2827 11.392 21.7126 11.392 22.5833 13.157Z" fill="#E31055" stroke="#E31055" stroke-width="1.5" stroke-linecap="round" stroke-linejoin="round"/>
</svg>
