<svg width="20" height="20" viewBox="0 0 20 20" fill="none" xmlns="http://www.w3.org/2000/svg">
<path d="M16.0669 19.9984H16.4169C16.8869 19.9784 17.3169 19.7384 17.5869 19.3584L19.7269 16.2684C19.9569 15.9384 20.0469 15.5284 19.9669 15.1284C19.8869 14.7284 19.6569 14.3884 19.3269 14.1584L14.6869 11.0684C14.4417 10.9035 14.1524 10.8164 13.8569 10.8184C13.4469 10.8184 13.0469 10.9784 12.7569 11.2984L11.2869 12.8884C10.5969 12.4584 9.67693 11.8184 8.92693 11.0684C8.20693 10.3484 7.55693 9.42837 7.10693 8.70837L8.69693 7.23837C9.23693 6.73837 9.33693 5.91837 8.92693 5.30837L5.83693 0.668371C5.61693 0.338371 5.26693 0.0983711 4.86693 0.0283711C4.67216 -0.0105968 4.47148 -0.0094109 4.27718 0.031856C4.08289 0.0731229 3.89905 0.153603 3.73693 0.268371L0.646931 2.40837C0.256931 2.67837 0.0269309 3.10837 0.00693091 3.57837C-0.0230691 4.26837 -0.153069 10.4784 4.68693 15.3184C9.03693 19.6684 14.4969 20.0084 16.0669 20.0084V19.9984ZM4.87693 8.04837C4.71693 8.19837 4.66693 8.43837 4.76693 8.63837C4.81693 8.72837 5.91693 10.8784 7.50693 12.4784C9.10693 14.0784 11.2569 15.1784 11.3469 15.2284C11.5469 15.3284 11.7869 15.2884 11.9369 15.1184L13.9269 12.9684L17.7869 15.5384L16.0869 17.9984C14.9269 17.9984 9.95693 17.7584 6.09693 13.8984C2.23693 10.0384 1.99693 5.05837 1.99693 3.90837L4.45693 2.20837L7.02693 6.06837L4.87693 8.05837V8.04837Z" fill="#808080"/>
</svg>
