<svg width="40" height="40" viewBox="0 0 40 40" fill="none" xmlns="http://www.w3.org/2000/svg">
<circle cx="20" cy="20" r="20" fill="black" fill-opacity="0.1"/>
<circle cx="20" cy="20" r="19.5" stroke="white" stroke-opacity="0.12"/>
<path d="M21.66 10.2552C21.37 9.99524 20.94 9.92524 20.59 10.0852C20.23 10.2452 20 10.6052 20 10.9952V14.9952H19C14.59 14.9952 11 18.5852 11 22.9952V26.9952C11 27.4152 11.27 27.7952 11.67 27.9352C11.78 27.9752 11.89 27.9952 12 27.9952C12.3 27.9952 12.59 27.8652 12.78 27.6152L14.68 25.2452C15.2418 24.5412 15.9554 23.9732 16.7675 23.5836C17.5796 23.194 18.4693 22.9929 19.37 22.9952H20.01V26.9952C20.01 27.3852 20.24 27.7452 20.6 27.9052C20.96 28.0652 21.38 28.0052 21.67 27.7352L30.67 19.7352C30.88 19.5452 31.01 19.2752 31.01 18.9852C31.01 18.6952 30.89 18.4252 30.67 18.2352L21.66 10.2552ZM22 24.7752V21.0052H19.36C18.1596 21.0023 16.974 21.2706 15.8917 21.7901C14.8095 22.3096 13.8586 23.0668 13.11 24.0052L12.99 24.1552V23.0052C12.99 19.6952 15.68 17.0052 18.99 17.0052H21.99V13.2352L28.48 19.0052L21.99 24.7752H22Z" fill="#2E2E2E"/>
</svg>
