<svg width="24" height="24" viewBox="0 0 24 24" fill="none" xmlns="http://www.w3.org/2000/svg">
<path d="M12 9C9.83 9 8 10.83 8 13C8 15.17 9.83 17 12 17C14.17 17 16 15.17 16 13C16 10.83 14.17 9 12 9ZM12 15C10.93 15 10 14.07 10 13C10 11.93 10.93 11 12 11C13.07 11 14 11.93 14 13C14 14.07 13.07 15 12 15Z" fill="#999999"/>
<path d="M20 5H16.85L14.62 3.22C14.44 3.08 14.22 3 14 3H10C9.77 3 9.55 3.08 9.38 3.22L7.15 5H4C2.9 5 2 5.9 2 7V19C2 20.1 2.9 21 4 21H20C21.1 21 22 20.1 22 19V7C22 5.9 21.1 5 20 5ZM20 19H4V7H7.5C7.73 7 7.95 6.92 8.12 6.78L10.35 5H13.65L15.88 6.78C16.06 6.92 16.28 7 16.5 7H20V19Z" fill="#999999"/>
<path d="M18 8C17.7348 8 17.4804 8.10536 17.2929 8.29289C17.1054 8.48043 17 8.73478 17 9C17 9.26522 17.1054 9.51957 17.2929 9.70711C17.4804 9.89464 17.7348 10 18 10C18.2652 10 18.5196 9.89464 18.7071 9.70711C18.8946 9.51957 19 9.26522 19 9C19 8.73478 18.8946 8.48043 18.7071 8.29289C18.5196 8.10536 18.2652 8 18 8Z" fill="#999999"/>
</svg>
