<svg width="55" height="12" viewBox="0 0 55 12" fill="none" xmlns="http://www.w3.org/2000/svg">
<path d="M0.000406265 11.52V0.320019H1.34441V10.448H6.56041V11.52H0.000406265ZM11.5989 11.712C10.8522 11.712 10.1802 11.5414 9.58291 11.2C8.98557 10.8587 8.51091 10.3787 8.15891 9.76002C7.81757 9.13069 7.64691 8.39469 7.64691 7.55202C7.64691 6.70935 7.82291 5.97869 8.17491 5.36002C8.52691 4.73069 9.00157 4.24535 9.59891 3.90402C10.2069 3.56269 10.8842 3.39202 11.6309 3.39202C12.3776 3.39202 13.0496 3.56269 13.6469 3.90402C14.2442 4.24535 14.7136 4.73069 15.0549 5.36002C15.4069 5.97869 15.5829 6.70935 15.5829 7.55202C15.5829 8.39469 15.4069 9.13069 15.0549 9.76002C14.7029 10.3787 14.2229 10.8587 13.6149 11.2C13.0176 11.5414 12.3456 11.712 11.5989 11.712ZM11.5989 10.56C12.0576 10.56 12.4842 10.448 12.8789 10.224C13.2736 10 13.5936 9.66402 13.8389 9.21602C14.0842 8.76802 14.2069 8.21335 14.2069 7.55202C14.2069 6.89069 14.0842 6.33602 13.8389 5.88802C13.6042 5.44002 13.2896 5.10402 12.8949 4.88002C12.5002 4.65602 12.0789 4.54402 11.6309 4.54402C11.1722 4.54402 10.7456 4.65602 10.3509 4.88002C9.95624 5.10402 9.63624 5.44002 9.39091 5.88802C9.14557 6.33602 9.02291 6.89069 9.02291 7.55202C9.02291 8.21335 9.14557 8.76802 9.39091 9.21602C9.63624 9.66402 9.95091 10 10.3349 10.224C10.7296 10.448 11.1509 10.56 11.5989 10.56ZM20.3477 11.712C19.409 11.712 18.6623 11.4294 18.1077 10.864C17.553 10.288 17.2757 9.40802 17.2757 8.22402V3.58402H18.6197V8.08002C18.6197 9.73335 19.297 10.56 20.6517 10.56C21.345 10.56 21.9157 10.3147 22.3637 9.82402C22.8223 9.32269 23.0517 8.61335 23.0517 7.69602V3.58402H24.3957V11.52H23.1797L23.0837 10.096C22.8383 10.5974 22.4703 10.992 21.9797 11.28C21.4997 11.568 20.9557 11.712 20.3477 11.712ZM27.4239 1.82402C27.1572 1.82402 26.9332 1.73869 26.7519 1.56802C26.5812 1.38669 26.4959 1.16269 26.4959 0.896019C26.4959 0.640019 26.5812 0.426686 26.7519 0.256019C26.9332 0.0853523 27.1572 1.90735e-05 27.4239 1.90735e-05C27.6799 1.90735e-05 27.8986 0.0853523 28.0799 0.256019C28.2612 0.426686 28.3519 0.640019 28.3519 0.896019C28.3519 1.16269 28.2612 1.38669 28.0799 1.56802C27.8986 1.73869 27.6799 1.82402 27.4239 1.82402ZM26.7519 11.52V3.58402H28.0959V11.52H26.7519ZM33.476 11.712C32.5267 11.712 31.7374 11.472 31.108 10.992C30.4787 10.512 30.1107 9.86135 30.004 9.04002H31.38C31.4654 9.45602 31.684 9.81869 32.036 10.128C32.3987 10.4267 32.884 10.576 33.492 10.576C34.0574 10.576 34.4734 10.4587 34.74 10.224C35.0067 9.97869 35.14 9.69069 35.14 9.36002C35.14 8.88002 34.964 8.56002 34.612 8.40002C34.2707 8.24002 33.7854 8.09602 33.156 7.96802C32.7294 7.88269 32.3027 7.76002 31.876 7.60002C31.4494 7.44002 31.092 7.21602 30.804 6.92802C30.516 6.62935 30.372 6.24002 30.372 5.76002C30.372 5.06669 30.628 4.50135 31.14 4.06402C31.6627 3.61602 32.3667 3.39202 33.252 3.39202C34.0947 3.39202 34.7827 3.60535 35.316 4.03202C35.86 4.44802 36.1747 5.04535 36.26 5.82402H34.932C34.8787 5.41869 34.7027 5.10402 34.404 4.88002C34.116 4.64535 33.7267 4.52802 33.236 4.52802C32.756 4.52802 32.3827 4.62935 32.116 4.83202C31.86 5.03469 31.732 5.30135 31.732 5.63202C31.732 5.95202 31.8974 6.20269 32.228 6.38402C32.5694 6.56535 33.028 6.72002 33.604 6.84802C34.0947 6.95469 34.5587 7.08802 34.996 7.24802C35.444 7.39735 35.8067 7.62669 36.084 7.93602C36.372 8.23469 36.516 8.67202 36.516 9.24802C36.5267 9.96269 36.2547 10.5547 35.7 11.024C35.156 11.4827 34.4147 11.712 33.476 11.712ZM41.076 11.712C40.4147 11.712 39.8654 11.6 39.428 11.376C38.9907 11.152 38.6654 10.8534 38.452 10.48C38.2387 10.1067 38.132 9.70135 38.132 9.26402C38.132 8.45335 38.4414 7.82935 39.06 7.39202C39.6787 6.95469 40.5214 6.73602 41.588 6.73602H43.732V6.64002C43.732 5.94669 43.5507 5.42402 43.188 5.07202C42.8254 4.70935 42.34 4.52802 41.732 4.52802C41.2094 4.52802 40.756 4.66135 40.372 4.92802C39.9987 5.18402 39.764 5.56269 39.668 6.06402H38.292C38.3454 5.48802 38.5374 5.00269 38.868 4.60802C39.2094 4.21335 39.6307 3.91469 40.132 3.71202C40.6334 3.49869 41.1667 3.39202 41.732 3.39202C42.8414 3.39202 43.6734 3.69069 44.228 4.28802C44.7934 4.87469 45.076 5.65869 45.076 6.64002V11.52H43.876L43.796 10.096C43.572 10.544 43.2414 10.928 42.804 11.248C42.3774 11.5574 41.8014 11.712 41.076 11.712ZM41.284 10.576C41.796 10.576 42.2334 10.4427 42.596 10.176C42.9694 9.90935 43.252 9.56269 43.444 9.13602C43.636 8.70935 43.732 8.26135 43.732 7.79202V7.77602H41.7C40.9107 7.77602 40.3507 7.91469 40.02 8.19202C39.7 8.45869 39.54 8.79469 39.54 9.20002C39.54 9.61602 39.6894 9.95202 39.988 10.208C40.2974 10.4534 40.7294 10.576 41.284 10.576ZM50.5003 11.6C50.2336 11.6 50.0096 11.5147 49.8283 11.344C49.6576 11.1627 49.5723 10.944 49.5723 10.688C49.5723 10.432 49.6576 10.2187 49.8283 10.048C50.0096 9.86669 50.2336 9.77602 50.5003 9.77602C50.7563 9.77602 50.9696 9.86669 51.1403 10.048C51.3216 10.2187 51.4123 10.432 51.4123 10.688C51.4123 10.944 51.3216 11.1627 51.1403 11.344C50.9696 11.5147 50.7563 11.6 50.5003 11.6ZM53.4443 11.6C53.1776 11.6 52.9536 11.5147 52.7723 11.344C52.6016 11.1627 52.5163 10.944 52.5163 10.688C52.5163 10.432 52.6016 10.2187 52.7723 10.048C52.9536 9.86669 53.1776 9.77602 53.4443 9.77602C53.7003 9.77602 53.9136 9.86669 54.0843 10.048C54.2656 10.2187 54.3563 10.432 54.3563 10.688C54.3563 10.944 54.2656 11.1627 54.0843 11.344C53.9136 11.5147 53.7003 11.6 53.4443 11.6ZM47.5563 11.6C47.2896 11.6 47.0656 11.5147 46.8843 11.344C46.7136 11.1627 46.6283 10.944 46.6283 10.688C46.6283 10.432 46.7136 10.2187 46.8843 10.048C47.0656 9.86669 47.2896 9.77602 47.5563 9.77602C47.8123 9.77602 48.0256 9.86669 48.1963 10.048C48.3776 10.2187 48.4683 10.432 48.4683 10.688C48.4683 10.944 48.3776 11.1627 48.1963 11.344C48.0256 11.5147 47.8123 11.6 47.5563 11.6Z" fill="#333333"/>
</svg>
