<svg width="20" height="20" viewBox="0 0 20 20" fill="none" xmlns="http://www.w3.org/2000/svg">
<path d="M12.8184 5.81812H12.8284M0.818359 13.8179L5.81836 8.81794C6.74636 7.92494 7.89036 7.92494 8.81836 8.81794L13.8184 13.8179M11.8184 11.8179L12.8184 10.8179C13.7464 9.92494 14.8904 9.92494 15.8184 10.8179L18.8184 13.8179M0.818359 3.81812C0.818359 3.02247 1.13443 2.2594 1.69704 1.69679C2.25965 1.13419 3.02271 0.818115 3.81836 0.818115H15.8184C16.614 0.818115 17.3771 1.13419 17.9397 1.69679C18.5023 2.2594 18.8184 3.02247 18.8184 3.81812V15.8181C18.8184 16.6138 18.5023 17.3768 17.9397 17.9394C17.3771 18.502 16.614 18.8181 15.8184 18.8181H3.81836C3.02271 18.8181 2.25965 18.502 1.69704 17.9394C1.13443 17.3768 0.818359 16.6138 0.818359 15.8181V3.81812Z" stroke="#E6E6E6" stroke-width="1.63636" stroke-linecap="round" stroke-linejoin="round"/>
</svg>
