<svg width="22" height="22" viewBox="0 0 22 22" fill="none" xmlns="http://www.w3.org/2000/svg">
<path d="M7.75 14.75C8.60038 15.3803 9.6346 15.75 10.75 15.75C11.8654 15.75 12.8996 15.3803 13.75 14.75" stroke="#E6E6E6" stroke-width="1.5" stroke-linecap="round"/>
<path d="M13.75 10.75C14.3023 10.75 14.75 10.0784 14.75 9.25C14.75 8.42157 14.3023 7.75 13.75 7.75C13.1977 7.75 12.75 8.42157 12.75 9.25C12.75 10.0784 13.1977 10.75 13.75 10.75Z" fill="#E6E6E6"/>
<path d="M7.75 10.75C8.30228 10.75 8.75 10.0784 8.75 9.25C8.75 8.42157 8.30228 7.75 7.75 7.75C7.19772 7.75 6.75 8.42157 6.75 9.25C6.75 10.0784 7.19772 10.75 7.75 10.75Z" fill="#E6E6E6"/>
<path d="M13.75 20.75H10.75C6.03595 20.75 3.67893 20.75 2.21447 19.2855C0.75 17.8211 0.75 15.464 0.75 10.75C0.75 6.03595 0.75 3.67893 2.21447 2.21447C3.67893 0.75 6.03595 0.75 10.75 0.75C15.464 0.75 17.8211 0.75 19.2855 2.21447C20.2593 3.18821 20.5856 4.55655 20.6949 6.75M13.75 20.75C17.616 20.75 20.75 17.616 20.75 13.75M13.75 20.75C13.75 18.8887 13.75 17.9581 13.9947 17.2049C14.4893 15.6827 15.6827 14.4893 17.2049 13.9947C17.9581 13.75 18.8887 13.75 20.75 13.75M20.75 13.75V10.75" stroke="#E6E6E6" stroke-width="1.5" stroke-linecap="round"/>
</svg>
