<svg width="101" height="14" viewBox="0 0 101 14" fill="none" xmlns="http://www.w3.org/2000/svg">
<path d="M-0.000320271 12.96V0.35996H8.00968V1.90796H1.90768V5.83196H7.46968V7.34396H1.90768V11.412H8.00968V12.96H-0.000320271ZM13.9549 12.96C13.0789 12.96 12.3829 12.75 11.8669 12.33C11.3509 11.898 11.0929 11.136 11.0929 10.044V5.63396H9.56288V4.03196H11.0929L11.3269 1.76396H13.0009V4.03196H15.5209V5.63396H13.0009V10.044C13.0009 10.536 13.1029 10.878 13.3069 11.07C13.5229 11.25 13.8889 11.34 14.4049 11.34H15.4309V12.96H13.9549ZM17.4882 12.96V-3.95775e-05H19.3962V5.47196C19.6962 4.95596 20.1102 4.55396 20.6382 4.26596C21.1782 3.96596 21.7722 3.81596 22.4202 3.81596C23.4882 3.81596 24.3282 4.15196 24.9402 4.82396C25.5522 5.49596 25.8582 6.49796 25.8582 7.82996V12.96H23.9682V8.02796C23.9682 6.29996 23.2782 5.43596 21.8982 5.43596C21.1782 5.43596 20.5782 5.68796 20.0982 6.19196C19.6302 6.69596 19.3962 7.41596 19.3962 8.35196V12.96H17.4882ZM31.1294 13.176C30.3734 13.176 29.7494 13.05 29.2574 12.798C28.7654 12.546 28.3994 12.216 28.1594 11.808C27.9194 11.388 27.7994 10.932 27.7994 10.44C27.7994 9.57596 28.1354 8.89196 28.8074 8.38796C29.4794 7.88396 30.4394 7.63196 31.6874 7.63196H34.0274V7.46996C34.0274 6.77396 33.8354 6.25196 33.4514 5.90396C33.0794 5.55596 32.5934 5.38196 31.9934 5.38196C31.4654 5.38196 31.0034 5.51396 30.6074 5.77796C30.2234 6.02996 29.9894 6.40796 29.9054 6.91196H27.9974C28.0574 6.26396 28.2734 5.71196 28.6454 5.25596C29.0294 4.78796 29.5094 4.43396 30.0854 4.19396C30.6734 3.94196 31.3154 3.81596 32.0114 3.81596C33.2594 3.81596 34.2254 4.14596 34.9094 4.80596C35.5934 5.45396 35.9354 6.34196 35.9354 7.46996V12.96H34.2794L34.1174 11.43C33.8654 11.922 33.4994 12.336 33.0194 12.672C32.5394 13.008 31.9094 13.176 31.1294 13.176ZM31.5074 11.628C32.0234 11.628 32.4554 11.508 32.8034 11.268C33.1634 11.016 33.4394 10.686 33.6314 10.278C33.8354 9.86996 33.9614 9.41996 34.0094 8.92796H31.8854C31.1294 8.92796 30.5894 9.05996 30.2654 9.32396C29.9534 9.58796 29.7974 9.91796 29.7974 10.314C29.7974 10.722 29.9474 11.046 30.2474 11.286C30.5594 11.514 30.9794 11.628 31.5074 11.628ZM38.1601 12.96V4.03196H39.8521L39.9961 5.59796C40.2721 5.04596 40.6741 4.61396 41.2021 4.30196C41.7421 3.97796 42.3601 3.81596 43.0561 3.81596C44.1361 3.81596 44.9821 4.15196 45.5941 4.82396C46.2181 5.49596 46.5301 6.49796 46.5301 7.82996V12.96H44.6401V8.02796C44.6401 6.29996 43.9321 5.43596 42.5161 5.43596C41.8081 5.43596 41.2201 5.68796 40.7521 6.19196C40.2961 6.69596 40.0681 7.41596 40.0681 8.35196V12.96H38.1601ZM57.5424 13.176C56.6184 13.176 55.8084 13.014 55.1124 12.69C54.4164 12.366 53.8704 11.904 53.4744 11.304C53.0904 10.704 52.8924 9.98996 52.8804 9.16196H54.8964C54.9084 9.83396 55.1424 10.404 55.5984 10.872C56.0544 11.34 56.6964 11.574 57.5244 11.574C58.2564 11.574 58.8264 11.4 59.2344 11.052C59.6544 10.692 59.8644 10.236 59.8644 9.68396C59.8644 9.23996 59.7624 8.87996 59.5584 8.60396C59.3664 8.32796 59.0964 8.09996 58.7484 7.91996C58.4124 7.73996 58.0224 7.57796 57.5784 7.43396C57.1344 7.28996 56.6664 7.13396 56.1744 6.96596C55.2024 6.64196 54.4704 6.22196 53.9784 5.70596C53.4984 5.18996 53.2584 4.51196 53.2584 3.67196C53.2464 2.96396 53.4084 2.34596 53.7444 1.81796C54.0924 1.28996 54.5724 0.88196 55.1844 0.59396C55.8084 0.293961 56.5344 0.143961 57.3624 0.143961C58.1784 0.143961 58.8924 0.293961 59.5044 0.59396C60.1284 0.89396 60.6144 1.31396 60.9624 1.85396C61.3104 2.38196 61.4904 2.99996 61.5024 3.70796H59.4864C59.4864 3.38396 59.4024 3.07796 59.2344 2.78996C59.0664 2.48996 58.8204 2.24396 58.4964 2.05196C58.1724 1.85996 57.7764 1.76396 57.3084 1.76396C56.7084 1.75196 56.2104 1.90196 55.8144 2.21396C55.4304 2.52596 55.2384 2.95796 55.2384 3.50996C55.2384 4.00196 55.3824 4.37996 55.6704 4.64396C55.9584 4.90796 56.3544 5.12996 56.8584 5.30996C57.3624 5.47796 57.9384 5.67596 58.5864 5.90396C59.2104 6.10796 59.7684 6.35396 60.2604 6.64196C60.7524 6.92996 61.1424 7.30796 61.4304 7.77596C61.7304 8.24396 61.8804 8.83796 61.8804 9.55796C61.8804 10.194 61.7184 10.788 61.3944 11.34C61.0704 11.88 60.5844 12.324 59.9364 12.672C59.2884 13.008 58.4904 13.176 57.5424 13.176ZM63.8945 12.96V4.03196H65.5865L65.7485 5.29196C66.0365 4.83596 66.4145 4.47596 66.8825 4.21196C67.3625 3.94796 67.9145 3.81596 68.5385 3.81596C69.9545 3.81596 70.9385 4.37396 71.4905 5.48996C71.8145 4.97396 72.2465 4.56596 72.7865 4.26596C73.3385 3.96596 73.9325 3.81596 74.5685 3.81596C75.6845 3.81596 76.5605 4.15196 77.1965 4.82396C77.8325 5.49596 78.1505 6.49796 78.1505 7.82996V12.96H76.2425V8.02796C76.2425 6.29996 75.5825 5.43596 74.2625 5.43596C73.5905 5.43596 73.0385 5.68796 72.6065 6.19196C72.1865 6.69596 71.9765 7.41596 71.9765 8.35196V12.96H70.0685V8.02796C70.0685 6.29996 69.4025 5.43596 68.0705 5.43596C67.4105 5.43596 66.8645 5.68796 66.4325 6.19196C66.0125 6.69596 65.8025 7.41596 65.8025 8.35196V12.96H63.8945ZM81.4628 2.33996C81.1028 2.33996 80.8028 2.23196 80.5628 2.01596C80.3348 1.78796 80.2208 1.50596 80.2208 1.16996C80.2208 0.83396 80.3348 0.55796 80.5628 0.34196C80.8028 0.11396 81.1028 -3.95775e-05 81.4628 -3.95775e-05C81.8228 -3.95775e-05 82.1168 0.11396 82.3448 0.34196C82.5848 0.55796 82.7048 0.83396 82.7048 1.16996C82.7048 1.50596 82.5848 1.78796 82.3448 2.01596C82.1168 2.23196 81.8228 2.33996 81.4628 2.33996ZM80.5088 12.96V4.03196H82.4168V12.96H80.5088ZM88.6795 12.96C87.8035 12.96 87.1075 12.75 86.5915 12.33C86.0755 11.898 85.8175 11.136 85.8175 10.044V5.63396H84.2875V4.03196H85.8175L86.0515 1.76396H87.7255V4.03196H90.2455V5.63396H87.7255V10.044C87.7255 10.536 87.8275 10.878 88.0315 11.07C88.2475 11.25 88.6135 11.34 89.1295 11.34H90.1555V12.96H88.6795ZM92.2128 12.96V-3.95775e-05H94.1208V5.47196C94.4208 4.95596 94.8348 4.55396 95.3628 4.26596C95.9028 3.96596 96.4968 3.81596 97.1448 3.81596C98.2128 3.81596 99.0528 4.15196 99.6648 4.82396C100.277 5.49596 100.583 6.49796 100.583 7.82996V12.96H98.6928V8.02796C98.6928 6.29996 98.0028 5.43596 96.6228 5.43596C95.9028 5.43596 95.3028 5.68796 94.8228 6.19196C94.3548 6.69596 94.1208 7.41596 94.1208 8.35196V12.96H92.2128Z" fill="black"/>
</svg>
