<svg width="119" height="14" viewBox="0 0 119 14" fill="none" xmlns="http://www.w3.org/2000/svg">
<path d="M4.83044 9.80005V7.98005H0.00043752V6.55205L4.59244 4.81606e-05H6.62244V6.42605H7.91044V7.98005H6.62244V9.80005H4.83044ZM1.91844 6.42605H4.94244V1.97405L1.91844 6.42605ZM9.15119 6.49605V4.99805H11.7832V2.57605H13.3092V4.99805H15.9272V6.49605H13.3092V8.91805H11.7832V6.49605H9.15119ZM20.9666 9.80005V2.85605H22.5486L22.6886 4.03205C22.9033 3.62138 23.2113 3.29472 23.6126 3.05205C24.0233 2.80938 24.504 2.68805 25.0546 2.68805C25.9133 2.68805 26.5806 2.95872 27.0566 3.50005C27.5326 4.04138 27.7706 4.83472 27.7706 5.88005V9.80005H25.9786V6.04805C25.9786 5.45072 25.8573 4.99338 25.6146 4.67605C25.372 4.35872 24.994 4.20005 24.4806 4.20005C23.9766 4.20005 23.5613 4.37738 23.2346 4.73205C22.9173 5.08672 22.7586 5.58138 22.7586 6.21605V9.80005H20.9666ZM32.8582 9.96805C32.1582 9.96805 31.5376 9.81872 30.9962 9.52005C30.4549 9.22138 30.0302 8.80138 29.7222 8.26005C29.4142 7.71872 29.2602 7.09338 29.2602 6.38405C29.2602 5.66538 29.4096 5.02605 29.7082 4.46605C30.0162 3.90605 30.4362 3.47205 30.9682 3.16405C31.5096 2.84672 32.1442 2.68805 32.8722 2.68805C33.5536 2.68805 34.1556 2.83738 34.6782 3.13605C35.2009 3.43472 35.6069 3.84538 35.8962 4.36805C36.1949 4.88138 36.3442 5.45538 36.3442 6.09005C36.3442 6.19272 36.3396 6.30005 36.3302 6.41205C36.3302 6.52405 36.3256 6.64072 36.3162 6.76205H31.0382C31.0756 7.30338 31.2622 7.72805 31.5982 8.03605C31.9436 8.34405 32.3589 8.49805 32.8442 8.49805C33.2082 8.49805 33.5116 8.41872 33.7542 8.26005C34.0062 8.09205 34.1929 7.87738 34.3142 7.61605H36.1342C36.0036 8.05472 35.7842 8.45605 35.4762 8.82005C35.1776 9.17472 34.8042 9.45472 34.3562 9.66005C33.9176 9.86538 33.4182 9.96805 32.8582 9.96805ZM32.8722 4.14405C32.4336 4.14405 32.0462 4.27005 31.7102 4.52205C31.3742 4.76472 31.1596 5.13805 31.0662 5.64205H34.5242C34.4962 5.18472 34.3282 4.82072 34.0202 4.55005C33.7122 4.27938 33.3296 4.14405 32.8722 4.14405ZM38.936 9.80005L36.906 2.85605H38.684L39.888 7.85405L41.288 2.85605H43.276L44.676 7.85405L45.894 2.85605H47.672L45.628 9.80005H43.766L42.282 4.60605L40.798 9.80005H38.936ZM52.1385 9.80005V2.85605H53.7205L53.8745 3.79405C54.0985 3.45805 54.3925 3.19205 54.7565 2.99605C55.1298 2.79072 55.5592 2.68805 56.0445 2.68805C57.1178 2.68805 57.8785 3.10338 58.3265 3.93405C58.5785 3.55138 58.9145 3.24805 59.3345 3.02405C59.7638 2.80005 60.2305 2.68805 60.7345 2.68805C61.6398 2.68805 62.3352 2.95872 62.8205 3.50005C63.3058 4.04138 63.5485 4.83472 63.5485 5.88005V9.80005H61.7565V6.04805C61.7565 5.45072 61.6398 4.99338 61.4065 4.67605C61.1825 4.35872 60.8325 4.20005 60.3565 4.20005C59.8712 4.20005 59.4792 4.37738 59.1805 4.73205C58.8912 5.08672 58.7465 5.58138 58.7465 6.21605V9.80005H56.9545V6.04805C56.9545 5.45072 56.8378 4.99338 56.6045 4.67605C56.3712 4.35872 56.0118 4.20005 55.5265 4.20005C55.0505 4.20005 54.6632 4.37738 54.3645 4.73205C54.0752 5.08672 53.9305 5.58138 53.9305 6.21605V9.80005H52.1385ZM68.6238 9.96805C67.9238 9.96805 67.3032 9.81872 66.7618 9.52005C66.2205 9.22138 65.7958 8.80138 65.4878 8.26005C65.1798 7.71872 65.0258 7.09338 65.0258 6.38405C65.0258 5.66538 65.1752 5.02605 65.4738 4.46605C65.7818 3.90605 66.2018 3.47205 66.7338 3.16405C67.2752 2.84672 67.9098 2.68805 68.6378 2.68805C69.3192 2.68805 69.9212 2.83738 70.4438 3.13605C70.9665 3.43472 71.3725 3.84538 71.6618 4.36805C71.9605 4.88138 72.1098 5.45538 72.1098 6.09005C72.1098 6.19272 72.1052 6.30005 72.0958 6.41205C72.0958 6.52405 72.0912 6.64072 72.0818 6.76205H66.8038C66.8412 7.30338 67.0278 7.72805 67.3638 8.03605C67.7092 8.34405 68.1245 8.49805 68.6098 8.49805C68.9738 8.49805 69.2772 8.41872 69.5198 8.26005C69.7718 8.09205 69.9585 7.87738 70.0798 7.61605H71.8998C71.7692 8.05472 71.5498 8.45605 71.2418 8.82005C70.9432 9.17472 70.5698 9.45472 70.1218 9.66005C69.6832 9.86538 69.1838 9.96805 68.6238 9.96805ZM68.6378 4.14405C68.1992 4.14405 67.8118 4.27005 67.4758 4.52205C67.1398 4.76472 66.9252 5.13805 66.8318 5.64205H70.2898C70.2618 5.18472 70.0938 4.82072 69.7858 4.55005C69.4778 4.27938 69.0952 4.14405 68.6378 4.14405ZM76.487 9.96805C75.871 9.96805 75.3297 9.87005 74.863 9.67405C74.3964 9.46872 74.023 9.18872 73.743 8.83405C73.463 8.47938 73.295 8.06872 73.239 7.60205H75.045C75.101 7.87272 75.2504 8.10605 75.493 8.30205C75.745 8.48872 76.067 8.58205 76.459 8.58205C76.851 8.58205 77.1357 8.50272 77.313 8.34405C77.4997 8.18538 77.593 8.00338 77.593 7.79805C77.593 7.49938 77.4624 7.29872 77.201 7.19605C76.9397 7.08405 76.5757 6.97672 76.109 6.87405C75.8104 6.80872 75.507 6.72938 75.199 6.63605C74.891 6.54272 74.6064 6.42605 74.345 6.28605C74.093 6.13672 73.8877 5.95005 73.729 5.72605C73.5704 5.49272 73.491 5.20805 73.491 4.87205C73.491 4.25605 73.7337 3.73805 74.219 3.31805C74.7137 2.89805 75.4044 2.68805 76.291 2.68805C77.1124 2.68805 77.7657 2.87938 78.251 3.26205C78.7457 3.64472 79.0397 4.17205 79.133 4.84405H77.439C77.3364 4.33072 76.949 4.07405 76.277 4.07405C75.941 4.07405 75.6797 4.13938 75.493 4.27005C75.3157 4.40072 75.227 4.56405 75.227 4.76005C75.227 4.96538 75.3624 5.12872 75.633 5.25005C75.9037 5.37138 76.263 5.48338 76.711 5.58605C77.1964 5.69805 77.6397 5.82405 78.041 5.96405C78.4517 6.09472 78.7784 6.29538 79.021 6.56605C79.2637 6.82738 79.385 7.20538 79.385 7.70005C79.3944 8.12938 79.2824 8.51672 79.049 8.86205C78.8157 9.20738 78.4797 9.47805 78.041 9.67405C77.6024 9.87005 77.0844 9.96805 76.487 9.96805ZM83.8425 9.96805C83.2265 9.96805 82.6852 9.87005 82.2185 9.67405C81.7518 9.46872 81.3785 9.18872 81.0985 8.83405C80.8185 8.47938 80.6505 8.06872 80.5945 7.60205H82.4005C82.4565 7.87272 82.6058 8.10605 82.8485 8.30205C83.1005 8.48872 83.4225 8.58205 83.8145 8.58205C84.2065 8.58205 84.4912 8.50272 84.6685 8.34405C84.8552 8.18538 84.9485 8.00338 84.9485 7.79805C84.9485 7.49938 84.8178 7.29872 84.5565 7.19605C84.2952 7.08405 83.9312 6.97672 83.4645 6.87405C83.1658 6.80872 82.8625 6.72938 82.5545 6.63605C82.2465 6.54272 81.9618 6.42605 81.7005 6.28605C81.4485 6.13672 81.2432 5.95005 81.0845 5.72605C80.9258 5.49272 80.8465 5.20805 80.8465 4.87205C80.8465 4.25605 81.0892 3.73805 81.5745 3.31805C82.0692 2.89805 82.7598 2.68805 83.6465 2.68805C84.4678 2.68805 85.1212 2.87938 85.6065 3.26205C86.1012 3.64472 86.3952 4.17205 86.4885 4.84405H84.7945C84.6918 4.33072 84.3045 4.07405 83.6325 4.07405C83.2965 4.07405 83.0352 4.13938 82.8485 4.27005C82.6712 4.40072 82.5825 4.56405 82.5825 4.76005C82.5825 4.96538 82.7178 5.12872 82.9885 5.25005C83.2592 5.37138 83.6185 5.48338 84.0665 5.58605C84.5518 5.69805 84.9952 5.82405 85.3965 5.96405C85.8072 6.09472 86.1338 6.29538 86.3765 6.56605C86.6192 6.82738 86.7405 7.20538 86.7405 7.70005C86.7498 8.12938 86.6378 8.51672 86.4045 8.86205C86.1712 9.20738 85.8352 9.47805 85.3965 9.67405C84.9578 9.87005 84.4398 9.96805 83.8425 9.96805ZM90.722 9.96805C90.1246 9.96805 89.6346 9.87472 89.252 9.68805C88.8693 9.49205 88.5846 9.23538 88.398 8.91805C88.2113 8.60072 88.118 8.25072 88.118 7.86805C88.118 7.22405 88.37 6.70138 88.874 6.30005C89.378 5.89872 90.134 5.69805 91.142 5.69805H92.906V5.53005C92.906 5.05405 92.7706 4.70405 92.5 4.48005C92.2293 4.25605 91.8933 4.14405 91.492 4.14405C91.128 4.14405 90.8106 4.23272 90.54 4.41005C90.2693 4.57805 90.1013 4.83005 90.036 5.16605H88.286C88.3326 4.66205 88.5006 4.22338 88.79 3.85005C89.0886 3.47672 89.4713 3.19205 89.938 2.99605C90.4046 2.79072 90.9273 2.68805 91.506 2.68805C92.4953 2.68805 93.2746 2.93538 93.844 3.43005C94.4133 3.92472 94.698 4.62472 94.698 5.53005V9.80005H93.172L93.004 8.68005C92.7986 9.05338 92.5093 9.36138 92.136 9.60405C91.772 9.84672 91.3006 9.96805 90.722 9.96805ZM91.128 8.56805C91.6413 8.56805 92.038 8.40005 92.318 8.06405C92.6073 7.72805 92.7893 7.31272 92.864 6.81805H91.338C90.862 6.81805 90.5213 6.90672 90.316 7.08405C90.1106 7.25205 90.008 7.46205 90.008 7.71405C90.008 7.98472 90.1106 8.19472 90.316 8.34405C90.5213 8.49338 90.792 8.56805 91.128 8.56805ZM99.348 7.72805C99.012 7.72805 98.6994 7.69072 98.41 7.61605L97.892 8.13405C98.0507 8.21805 98.2654 8.28805 98.536 8.34405C98.8067 8.40005 99.2454 8.45605 99.852 8.51205C100.776 8.59605 101.448 8.81538 101.868 9.17005C102.288 9.52472 102.498 10.0147 102.498 10.64C102.498 11.0507 102.386 11.438 102.162 11.802C101.938 12.1754 101.593 12.474 101.126 12.698C100.659 12.9314 100.062 13.048 99.334 13.048C98.3447 13.048 97.5467 12.8614 96.94 12.488C96.3334 12.124 96.03 11.5734 96.03 10.836C96.03 10.2107 96.3334 9.66938 96.94 9.21205C96.7534 9.12805 96.59 9.03938 96.45 8.94605C96.3194 8.85272 96.2027 8.75472 96.1 8.65205V8.33005L97.318 7.04205C96.7767 6.56605 96.506 5.95472 96.506 5.20805C96.506 4.74138 96.618 4.31672 96.842 3.93405C97.0754 3.55138 97.402 3.24805 97.822 3.02405C98.242 2.80005 98.7507 2.68805 99.348 2.68805C99.74 2.68805 100.104 2.74405 100.44 2.85605H103.072V3.94805L101.882 4.03205C102.069 4.38672 102.162 4.77872 102.162 5.20805C102.162 5.67472 102.05 6.09938 101.826 6.48205C101.602 6.86472 101.275 7.16805 100.846 7.39205C100.426 7.61605 99.9267 7.72805 99.348 7.72805ZM99.348 6.35605C99.712 6.35605 100.011 6.25805 100.244 6.06205C100.487 5.86605 100.608 5.58605 100.608 5.22205C100.608 4.85805 100.487 4.57805 100.244 4.38205C100.011 4.18605 99.712 4.08805 99.348 4.08805C98.9654 4.08805 98.6574 4.18605 98.424 4.38205C98.1907 4.57805 98.074 4.85805 98.074 5.22205C98.074 5.58605 98.1907 5.86605 98.424 6.06205C98.6574 6.25805 98.9654 6.35605 99.348 6.35605ZM97.668 10.654C97.668 10.9994 97.8267 11.256 98.144 11.424C98.4707 11.6014 98.8674 11.69 99.334 11.69C99.782 11.69 100.146 11.5967 100.426 11.41C100.706 11.2327 100.846 10.99 100.846 10.682C100.846 10.43 100.753 10.22 100.566 10.052C100.389 9.88405 100.029 9.78138 99.488 9.74405C99.1054 9.71605 98.7507 9.67405 98.424 9.61805C98.1534 9.76738 97.9574 9.93072 97.836 10.108C97.724 10.2854 97.668 10.4674 97.668 10.654ZM107.479 9.96805C106.779 9.96805 106.159 9.81872 105.617 9.52005C105.076 9.22138 104.651 8.80138 104.343 8.26005C104.035 7.71872 103.881 7.09338 103.881 6.38405C103.881 5.66538 104.031 5.02605 104.329 4.46605C104.637 3.90605 105.057 3.47205 105.589 3.16405C106.131 2.84672 106.765 2.68805 107.493 2.68805C108.175 2.68805 108.777 2.83738 109.299 3.13605C109.822 3.43472 110.228 3.84538 110.517 4.36805C110.816 4.88138 110.965 5.45538 110.965 6.09005C110.965 6.19272 110.961 6.30005 110.951 6.41205C110.951 6.52405 110.947 6.64072 110.937 6.76205H105.659C105.697 7.30338 105.883 7.72805 106.219 8.03605C106.565 8.34405 106.98 8.49805 107.465 8.49805C107.829 8.49805 108.133 8.41872 108.375 8.26005C108.627 8.09205 108.814 7.87738 108.935 7.61605H110.755C110.625 8.05472 110.405 8.45605 110.097 8.82005C109.799 9.17472 109.425 9.45472 108.977 9.66005C108.539 9.86538 108.039 9.96805 107.479 9.96805ZM107.493 4.14405C107.055 4.14405 106.667 4.27005 106.331 4.52205C105.995 4.76472 105.781 5.13805 105.687 5.64205H109.145C109.117 5.18472 108.949 4.82072 108.641 4.55005C108.333 4.27938 107.951 4.14405 107.493 4.14405ZM115.343 9.96805C114.727 9.96805 114.185 9.87005 113.719 9.67405C113.252 9.46872 112.879 9.18872 112.599 8.83405C112.319 8.47938 112.151 8.06872 112.095 7.60205H113.901C113.957 7.87272 114.106 8.10605 114.349 8.30205C114.601 8.48872 114.923 8.58205 115.315 8.58205C115.707 8.58205 115.991 8.50272 116.169 8.34405C116.355 8.18538 116.449 8.00338 116.449 7.79805C116.449 7.49938 116.318 7.29872 116.057 7.19605C115.795 7.08405 115.431 6.97672 114.965 6.87405C114.666 6.80872 114.363 6.72938 114.055 6.63605C113.747 6.54272 113.462 6.42605 113.201 6.28605C112.949 6.13672 112.743 5.95005 112.585 5.72605C112.426 5.49272 112.347 5.20805 112.347 4.87205C112.347 4.25605 112.589 3.73805 113.075 3.31805C113.569 2.89805 114.26 2.68805 115.147 2.68805C115.968 2.68805 116.621 2.87938 117.107 3.26205C117.601 3.64472 117.895 4.17205 117.989 4.84405H116.295C116.192 4.33072 115.805 4.07405 115.133 4.07405C114.797 4.07405 114.535 4.13938 114.349 4.27005C114.171 4.40072 114.083 4.56405 114.083 4.76005C114.083 4.96538 114.218 5.12872 114.489 5.25005C114.759 5.37138 115.119 5.48338 115.567 5.58605C116.052 5.69805 116.495 5.82405 116.897 5.96405C117.307 6.09472 117.634 6.29538 117.877 6.56605C118.119 6.82738 118.241 7.20538 118.241 7.70005C118.25 8.12938 118.138 8.51672 117.905 8.86205C117.671 9.20738 117.335 9.47805 116.897 9.67405C116.458 9.87005 115.94 9.96805 115.343 9.96805Z" fill="black"/>
</svg>
