<svg width="370" height="34" viewBox="0 0 370 34" fill="none" xmlns="http://www.w3.org/2000/svg">
<rect width="370" height="34" rx="10" fill="#E6E6E6"/>
<path d="M10.9092 15.4463C10.9092 14.5332 11.0807 13.6782 11.4238 12.8813C11.7669 12.0789 12.2428 11.3734 12.8516 10.7646C13.4603 10.1559 14.1631 9.68001 14.96 9.33691C15.7624 8.99382 16.6201 8.82227 17.5332 8.82227C18.4463 8.82227 19.3013 8.99382 20.0981 9.33691C20.9006 9.68001 21.6061 10.1559 22.2148 10.7646C22.8236 11.3734 23.2995 12.0789 23.6426 12.8813C23.9857 13.6782 24.1572 14.5332 24.1572 15.4463C24.1572 16.2044 24.0355 16.9238 23.792 17.6045C23.554 18.2852 23.222 18.9022 22.7959 19.4556L26.855 23.5396C26.9435 23.6281 27.0099 23.7305 27.0542 23.8467C27.104 23.9629 27.1289 24.0874 27.1289 24.2202C27.1289 24.4028 27.0874 24.5688 27.0044 24.7183C26.9269 24.8677 26.8162 24.9839 26.6724 25.0669C26.5285 25.1554 26.3625 25.1997 26.1743 25.1997C26.0415 25.1997 25.9142 25.1748 25.7925 25.125C25.6763 25.0807 25.5684 25.0116 25.4688 24.9175L21.3848 20.8252C20.8424 21.2126 20.2448 21.5169 19.5918 21.7383C18.9388 21.9596 18.2526 22.0703 17.5332 22.0703C16.6201 22.0703 15.7624 21.8988 14.96 21.5557C14.1631 21.2126 13.4603 20.7367 12.8516 20.1279C12.2428 19.5192 11.7669 18.8164 11.4238 18.0195C11.0807 17.2171 10.9092 16.3594 10.9092 15.4463ZM12.3286 15.4463C12.3286 16.1657 12.4614 16.8408 12.7271 17.4717C12.9982 18.097 13.3717 18.6476 13.8477 19.1235C14.3291 19.5994 14.8825 19.973 15.5078 20.2441C16.1387 20.5153 16.8138 20.6509 17.5332 20.6509C18.2526 20.6509 18.925 20.5153 19.5503 20.2441C20.1812 19.973 20.7345 19.5994 21.2104 19.1235C21.6864 18.6476 22.0599 18.097 22.3311 17.4717C22.6022 16.8408 22.7378 16.1657 22.7378 15.4463C22.7378 14.7269 22.6022 14.0545 22.3311 13.4292C22.0599 12.7983 21.6864 12.245 21.2104 11.769C20.7345 11.2876 20.1812 10.9141 19.5503 10.6484C18.925 10.3773 18.2526 10.2417 17.5332 10.2417C16.8138 10.2417 16.1387 10.3773 15.5078 10.6484C14.8825 10.9141 14.3291 11.2876 13.8477 11.769C13.3717 12.245 12.9982 12.7983 12.7271 13.4292C12.4614 14.0545 12.3286 14.7269 12.3286 15.4463Z" fill="#999999"/>
<path d="M39.4536 22.2822C38.5793 22.2822 37.8156 22.1411 37.1626 21.8589C36.5151 21.5711 36.0005 21.1782 35.6187 20.6802C35.2424 20.1766 35.0238 19.6011 34.9629 18.9536L34.9546 18.8623H36.4487L36.457 18.9536C36.4958 19.3521 36.6479 19.6979 36.9136 19.9912C37.1847 20.279 37.5444 20.5031 37.9927 20.6636C38.4465 20.8241 38.9611 20.9043 39.5366 20.9043C40.0789 20.9043 40.5604 20.8185 40.981 20.647C41.4071 20.4699 41.7419 20.2264 41.9854 19.9165C42.2288 19.6066 42.3506 19.2497 42.3506 18.8457V18.8374C42.3506 18.3394 42.168 17.9215 41.8027 17.584C41.4375 17.2409 40.8426 16.978 40.0181 16.7954L38.6899 16.5049C37.4891 16.2393 36.6147 15.8298 36.0669 15.2764C35.5246 14.7174 35.2534 14.0036 35.2534 13.1348V13.1265C35.259 12.4624 35.4388 11.8758 35.793 11.3667C36.1527 10.8576 36.6479 10.4591 37.2788 10.1714C37.9152 9.88363 38.6457 9.73975 39.4702 9.73975C40.2671 9.73975 40.9727 9.88363 41.5869 10.1714C42.2012 10.4536 42.6882 10.8354 43.0479 11.3169C43.4131 11.7983 43.6151 12.3379 43.6538 12.9355L43.6621 13.0518H42.168L42.1514 12.9438C42.096 12.5897 41.9521 12.277 41.7197 12.0059C41.4873 11.7292 41.1774 11.5106 40.79 11.3501C40.4027 11.1896 39.9489 11.1121 39.4287 11.1177C38.9307 11.1177 38.4824 11.1951 38.084 11.3501C37.6855 11.505 37.3674 11.7292 37.1294 12.0225C36.897 12.3102 36.7808 12.6644 36.7808 13.085V13.0933C36.7808 13.5692 36.9578 13.9704 37.312 14.2969C37.6662 14.6234 38.25 14.8752 39.0635 15.0522L40.3916 15.3511C41.2272 15.5337 41.8996 15.7716 42.4087 16.0649C42.9178 16.3582 43.2886 16.7179 43.521 17.144C43.759 17.5646 43.8779 18.0627 43.8779 18.6382V18.6465C43.8779 19.3936 43.6953 20.0382 43.3301 20.5806C42.9648 21.1229 42.4502 21.5435 41.7861 21.8423C41.1221 22.1356 40.3446 22.2822 39.4536 22.2822ZM49.8379 22.1577C48.9857 22.1577 48.2524 21.9696 47.6382 21.5933C47.0295 21.217 46.5591 20.6857 46.2271 19.9995C45.9006 19.3078 45.7373 18.4943 45.7373 17.5591V17.5508C45.7373 16.6266 45.9006 15.8159 46.2271 15.1187C46.5591 14.4214 47.0267 13.8763 47.6299 13.4834C48.2331 13.0905 48.9386 12.894 49.7466 12.894C50.5601 12.894 51.2573 13.0822 51.8384 13.4585C52.425 13.8348 52.8732 14.3605 53.1831 15.0356C53.4985 15.7052 53.6562 16.4855 53.6562 17.3765V17.9409H46.4844V16.7871H52.9175L52.2036 17.8413V17.2686C52.2036 16.5658 52.0985 15.9875 51.8882 15.5337C51.6779 15.0799 51.3874 14.7424 51.0166 14.521C50.6458 14.2941 50.2197 14.1807 49.7383 14.1807C49.2568 14.1807 48.8252 14.2996 48.4434 14.5376C48.0671 14.77 47.7682 15.1159 47.5469 15.5752C47.3255 16.0345 47.2148 16.599 47.2148 17.2686V17.8413C47.2148 18.4777 47.3228 19.0228 47.5386 19.4766C47.7544 19.9248 48.0615 20.2707 48.46 20.5142C48.8584 20.7521 49.3288 20.8711 49.8711 20.8711C50.2751 20.8711 50.6265 20.8158 50.9253 20.7051C51.2241 20.5944 51.4704 20.4533 51.6641 20.2817C51.8577 20.1102 51.9933 19.9359 52.0708 19.7588L52.104 19.6841H53.5483L53.5317 19.7505C53.4543 20.0549 53.3159 20.3509 53.1167 20.6387C52.923 20.9209 52.6712 21.1782 52.3613 21.4106C52.0514 21.6375 51.6834 21.8201 51.2573 21.9585C50.8368 22.0913 50.3636 22.1577 49.8379 22.1577ZM58.3545 22.1577C57.79 22.1577 57.2809 22.0498 56.8271 21.834C56.3789 21.6182 56.022 21.311 55.7563 20.9126C55.4963 20.5142 55.3662 20.0438 55.3662 19.5015V19.4849C55.3662 18.9536 55.4935 18.4998 55.748 18.1235C56.0026 17.7417 56.3734 17.4429 56.8604 17.2271C57.3473 17.0112 57.9367 16.884 58.6284 16.8452L61.9155 16.646V17.7998L58.8027 17.999C58.1221 18.0378 57.624 18.1789 57.3086 18.4224C56.9987 18.6659 56.8438 19.009 56.8438 19.4517V19.4683C56.8438 19.922 57.0153 20.2762 57.3584 20.5308C57.7015 20.7798 58.1331 20.9043 58.6533 20.9043C59.1458 20.9043 59.583 20.8075 59.9648 20.6138C60.3467 20.4146 60.6455 20.1462 60.8613 19.8086C61.0827 19.471 61.1934 19.0892 61.1934 18.6631V15.874C61.1934 15.3206 61.0246 14.9001 60.687 14.6123C60.355 14.319 59.8542 14.1724 59.1846 14.1724C58.6478 14.1724 58.2078 14.2692 57.8647 14.4629C57.5216 14.651 57.292 14.9194 57.1758 15.2681L57.1675 15.293H55.7231L55.7314 15.2432C55.8089 14.7728 56.0026 14.3633 56.3125 14.0146C56.6279 13.6605 57.0347 13.3866 57.5327 13.1929C58.0308 12.9937 58.598 12.894 59.2344 12.894C59.9648 12.894 60.5819 13.013 61.0854 13.251C61.5946 13.4889 61.9792 13.832 62.2393 14.2803C62.5049 14.723 62.6377 15.2542 62.6377 15.874V22H61.1934V20.6802H61.0605C60.8724 20.9956 60.6427 21.264 60.3716 21.4854C60.106 21.7067 59.8044 21.8755 59.4668 21.9917C59.1292 22.1024 58.7585 22.1577 58.3545 22.1577ZM65.2773 22V13.0518H66.7217V14.3799H66.8545C67.026 13.9095 67.3166 13.5443 67.7261 13.2842C68.1356 13.0241 68.6419 12.894 69.2451 12.894C69.3835 12.894 69.519 12.9023 69.6519 12.9189C69.7902 12.93 69.8953 12.9411 69.9673 12.9521V14.355C69.8179 14.3273 69.6712 14.3079 69.5273 14.2969C69.389 14.2803 69.2396 14.272 69.0791 14.272C68.6198 14.272 68.2131 14.3633 67.8589 14.5459C67.5047 14.7285 67.2253 14.9831 67.0205 15.3096C66.8213 15.6361 66.7217 16.0179 66.7217 16.4551V22H65.2773ZM75.1636 22.1577C74.328 22.1577 73.603 21.9668 72.9888 21.585C72.3745 21.2031 71.8986 20.6636 71.561 19.9663C71.2235 19.269 71.0547 18.4473 71.0547 17.501V17.4844C71.0547 16.5547 71.2207 15.7467 71.5527 15.0605C71.8903 14.3743 72.3662 13.8431 72.9805 13.4668C73.5947 13.085 74.3197 12.894 75.1553 12.894C75.8802 12.894 76.5055 13.0213 77.0312 13.2759C77.557 13.5304 77.9775 13.8735 78.293 14.3052C78.6084 14.7313 78.8104 15.21 78.8989 15.7412L78.9072 15.791H77.4712L77.4629 15.7661C77.3522 15.3234 77.1004 14.9471 76.7075 14.6372C76.3146 14.3273 75.7972 14.1724 75.1553 14.1724C74.6185 14.1724 74.1536 14.3079 73.7607 14.5791C73.3678 14.8503 73.0635 15.2349 72.8477 15.7329C72.6374 16.2254 72.5322 16.8092 72.5322 17.4844V17.501C72.5322 18.1872 72.6401 18.7848 72.856 19.2939C73.0718 19.7975 73.3761 20.1877 73.769 20.4644C74.1619 20.741 74.624 20.8794 75.1553 20.8794C75.7585 20.8794 76.251 20.7493 76.6328 20.4893C77.0146 20.2292 77.2886 19.8501 77.4546 19.3521L77.4712 19.3022L78.8989 19.2939L78.8823 19.3853C78.7606 19.922 78.5448 20.4007 78.2349 20.8213C77.925 21.2363 77.5155 21.5628 77.0063 21.8008C76.4972 22.0387 75.883 22.1577 75.1636 22.1577ZM81.0986 22V9.49902H82.543V14.3965H82.6758C82.9027 13.9206 83.2292 13.5526 83.6553 13.2925C84.0814 13.0269 84.6237 12.894 85.2822 12.894C85.9518 12.894 86.519 13.0241 86.9839 13.2842C87.4487 13.5387 87.8029 13.9123 88.0464 14.4048C88.2899 14.8973 88.4116 15.4977 88.4116 16.2061V22H86.9673V16.5547C86.9673 15.7467 86.7957 15.1491 86.4526 14.7617C86.1151 14.3688 85.5894 14.1724 84.8755 14.1724C84.3996 14.1724 83.9873 14.2747 83.6387 14.4795C83.29 14.6842 83.0189 14.9748 82.8252 15.3511C82.637 15.7274 82.543 16.1784 82.543 16.7041V22H81.0986Z" fill="#999999"/>
</svg>
