<svg width="68" height="9" viewBox="0 0 68 9" fill="none" xmlns="http://www.w3.org/2000/svg">
<path d="M0.000304699 8.63989V0.239892H1.0083V7.83589H4.92031V8.63989H0.000304699ZM8.69918 8.78389C8.13918 8.78389 7.63518 8.65589 7.18718 8.39989C6.73918 8.14389 6.38318 7.78389 6.11918 7.31989C5.86318 6.84789 5.73518 6.29589 5.73518 5.66389C5.73518 5.03189 5.86718 4.48389 6.13118 4.01989C6.39518 3.54789 6.75118 3.18389 7.19918 2.92789C7.65518 2.67189 8.16318 2.54389 8.72318 2.54389C9.28318 2.54389 9.78718 2.67189 10.2352 2.92789C10.6832 3.18389 11.0352 3.54789 11.2912 4.01989C11.5552 4.48389 11.6872 5.03189 11.6872 5.66389C11.6872 6.29589 11.5552 6.84789 11.2912 7.31989C11.0272 7.78389 10.6672 8.14389 10.2112 8.39989C9.76318 8.65589 9.25918 8.78389 8.69918 8.78389ZM8.69918 7.91989C9.04318 7.91989 9.36318 7.83589 9.65918 7.66789C9.95518 7.49989 10.1952 7.24789 10.3792 6.91189C10.5632 6.57589 10.6552 6.15989 10.6552 5.66389C10.6552 5.16789 10.5632 4.75189 10.3792 4.41589C10.2032 4.07989 9.96718 3.82789 9.67118 3.65989C9.37518 3.49189 9.05918 3.40789 8.72318 3.40789C8.37918 3.40789 8.05918 3.49189 7.76318 3.65989C7.46718 3.82789 7.22718 4.07989 7.04318 4.41589C6.85918 4.75189 6.76718 5.16789 6.76718 5.66389C6.76718 6.15989 6.85918 6.57589 7.04318 6.91189C7.22718 7.24789 7.46318 7.49989 7.75118 7.66789C8.04718 7.83589 8.36318 7.91989 8.69918 7.91989ZM15.8247 8.78389C15.2567 8.78389 14.7447 8.65589 14.2887 8.39989C13.8407 8.13589 13.4847 7.77189 13.2207 7.30789C12.9647 6.83589 12.8367 6.28789 12.8367 5.66389C12.8367 5.03989 12.9647 4.49589 13.2207 4.03189C13.4847 3.55989 13.8407 3.19589 14.2887 2.93989C14.7447 2.67589 15.2567 2.54389 15.8247 2.54389C16.5287 2.54389 17.1207 2.72789 17.6007 3.09589C18.0887 3.46389 18.3967 3.95589 18.5247 4.57189H17.4927C17.4127 4.20389 17.2167 3.91989 16.9047 3.71989C16.5927 3.51189 16.2287 3.40789 15.8127 3.40789C15.4767 3.40789 15.1607 3.49189 14.8647 3.65989C14.5687 3.82789 14.3287 4.07989 14.1447 4.41589C13.9607 4.75189 13.8687 5.16789 13.8687 5.66389C13.8687 6.15989 13.9607 6.57589 14.1447 6.91189C14.3287 7.24789 14.5687 7.50389 14.8647 7.67989C15.1607 7.84789 15.4767 7.93189 15.8127 7.93189C16.2287 7.93189 16.5927 7.83189 16.9047 7.63189C17.2167 7.42389 17.4127 7.13189 17.4927 6.75589H18.5247C18.4047 7.35589 18.1007 7.84389 17.6127 8.21989C17.1247 8.59589 16.5287 8.78389 15.8247 8.78389ZM21.9125 8.78389C21.4165 8.78389 21.0045 8.69989 20.6765 8.53189C20.3485 8.36389 20.1045 8.13989 19.9445 7.85989C19.7845 7.57989 19.7045 7.27589 19.7045 6.94789C19.7045 6.33989 19.9365 5.87189 20.4005 5.54389C20.8645 5.21589 21.4965 5.05189 22.2965 5.05189H23.9045V4.97989C23.9045 4.45989 23.7685 4.06789 23.4965 3.80389C23.2245 3.53189 22.8605 3.39589 22.4045 3.39589C22.0125 3.39589 21.6725 3.49589 21.3845 3.69589C21.1045 3.88789 20.9285 4.17189 20.8565 4.54789H19.8245C19.8645 4.11589 20.0085 3.75189 20.2565 3.45589C20.5125 3.15989 20.8285 2.93589 21.2045 2.78389C21.5805 2.62389 21.9805 2.54389 22.4045 2.54389C23.2365 2.54389 23.8605 2.76789 24.2765 3.21589C24.7005 3.65589 24.9125 4.24389 24.9125 4.97989V8.63989H24.0125L23.9525 7.57189C23.7845 7.90789 23.5365 8.19589 23.2085 8.43589C22.8885 8.66789 22.4565 8.78389 21.9125 8.78389ZM22.0685 7.93189C22.4525 7.93189 22.7805 7.83189 23.0525 7.63189C23.3325 7.43189 23.5445 7.17189 23.6885 6.85189C23.8325 6.53189 23.9045 6.19589 23.9045 5.84389V5.83189H22.3805C21.7885 5.83189 21.3685 5.93589 21.1205 6.14389C20.8805 6.34389 20.7605 6.59589 20.7605 6.89989C20.7605 7.21189 20.8725 7.46389 21.0965 7.65589C21.3285 7.83989 21.6525 7.93189 22.0685 7.93189ZM28.6126 8.63989C28.0686 8.63989 27.6406 8.50789 27.3286 8.24389C27.0166 7.97989 26.8606 7.50389 26.8606 6.81589V3.53989H25.8286V2.68789H26.8606L26.9926 1.25989H27.8686V2.68789H29.6206V3.53989H27.8686V6.81589C27.8686 7.19189 27.9446 7.44789 28.0966 7.58389C28.2486 7.71189 28.5166 7.77589 28.9006 7.77589H29.5246V8.63989H28.6126ZM31.5132 1.36789C31.3132 1.36789 31.1452 1.30389 31.0092 1.17589C30.8812 1.03989 30.8172 0.871892 30.8172 0.671892C30.8172 0.479892 30.8812 0.319892 31.0092 0.191892C31.1452 0.0638921 31.3132 -0.000107765 31.5132 -0.000107765C31.7052 -0.000107765 31.8692 0.0638921 32.0052 0.191892C32.1412 0.319892 32.2092 0.479892 32.2092 0.671892C32.2092 0.871892 32.1412 1.03989 32.0052 1.17589C31.8692 1.30389 31.7052 1.36789 31.5132 1.36789ZM31.0092 8.63989V2.68789H32.0172V8.63989H31.0092ZM36.4843 8.78389C35.9243 8.78389 35.4203 8.65589 34.9723 8.39989C34.5243 8.14389 34.1683 7.78389 33.9043 7.31989C33.6483 6.84789 33.5203 6.29589 33.5203 5.66389C33.5203 5.03189 33.6523 4.48389 33.9163 4.01989C34.1803 3.54789 34.5363 3.18389 34.9843 2.92789C35.4403 2.67189 35.9483 2.54389 36.5083 2.54389C37.0683 2.54389 37.5723 2.67189 38.0203 2.92789C38.4683 3.18389 38.8203 3.54789 39.0763 4.01989C39.3403 4.48389 39.4723 5.03189 39.4723 5.66389C39.4723 6.29589 39.3403 6.84789 39.0763 7.31989C38.8123 7.78389 38.4523 8.14389 37.9963 8.39989C37.5483 8.65589 37.0443 8.78389 36.4843 8.78389ZM36.4843 7.91989C36.8283 7.91989 37.1483 7.83589 37.4443 7.66789C37.7403 7.49989 37.9803 7.24789 38.1643 6.91189C38.3483 6.57589 38.4403 6.15989 38.4403 5.66389C38.4403 5.16789 38.3483 4.75189 38.1643 4.41589C37.9883 4.07989 37.7523 3.82789 37.4563 3.65989C37.1603 3.49189 36.8443 3.40789 36.5083 3.40789C36.1643 3.40789 35.8443 3.49189 35.5483 3.65989C35.2523 3.82789 35.0123 4.07989 34.8283 4.41589C34.6443 4.75189 34.5523 5.16789 34.5523 5.66389C34.5523 6.15989 34.6443 6.57589 34.8283 6.91189C35.0123 7.24789 35.2483 7.49989 35.5363 7.66789C35.8323 7.83589 36.1483 7.91989 36.4843 7.91989ZM40.8739 8.63989V2.68789H41.7859L41.8459 3.75589C42.0379 3.37989 42.3139 3.08389 42.6739 2.86789C43.0339 2.65189 43.4419 2.54389 43.8979 2.54389C44.6019 2.54389 45.1619 2.75989 45.5779 3.19189C46.0019 3.61589 46.2139 4.27189 46.2139 5.15989V8.63989H45.2059V5.26789C45.2059 4.02789 44.6939 3.40789 43.6699 3.40789C43.1579 3.40789 42.7299 3.59589 42.3859 3.97189C42.0499 4.33989 41.8819 4.86789 41.8819 5.55589V8.63989H40.8739ZM54.7929 8.78389C53.9689 8.78389 53.2449 8.60389 52.6209 8.24389C52.0049 7.87589 51.5209 7.36389 51.1689 6.70789C50.8249 6.05189 50.6529 5.29589 50.6529 4.43989C50.6529 3.58389 50.8249 2.83189 51.1689 2.18389C51.5209 1.52789 52.0049 1.01589 52.6209 0.647892C53.2449 0.279892 53.9689 0.0958924 54.7929 0.0958924C55.6249 0.0958924 56.3489 0.279892 56.9649 0.647892C57.5889 1.01589 58.0729 1.52789 58.4169 2.18389C58.7609 2.83189 58.9329 3.58389 58.9329 4.43989C58.9329 5.29589 58.7609 6.05189 58.4169 6.70789C58.0729 7.36389 57.5889 7.87589 56.9649 8.24389C56.3489 8.60389 55.6249 8.78389 54.7929 8.78389ZM54.7929 7.89589C55.4089 7.89589 55.9489 7.75989 56.4129 7.48789C56.8849 7.20789 57.2489 6.81189 57.5049 6.29989C57.7689 5.77989 57.9009 5.15989 57.9009 4.43989C57.9009 3.71989 57.7689 3.10389 57.5049 2.59189C57.2489 2.07989 56.8849 1.68789 56.4129 1.41589C55.9489 1.13589 55.4089 0.995892 54.7929 0.995892C54.1769 0.995892 53.6329 1.13589 53.1609 1.41589C52.6969 1.68789 52.3329 2.07989 52.0689 2.59189C51.8129 3.10389 51.6849 3.71989 51.6849 4.43989C51.6849 5.15989 51.8129 5.77989 52.0689 6.29989C52.3329 6.81189 52.6969 7.20789 53.1609 7.48789C53.6329 7.75989 54.1769 7.89589 54.7929 7.89589ZM60.651 8.63989V3.53989H59.751V2.68789H60.651V1.65589C60.651 1.07989 60.795 0.659892 61.083 0.395892C61.371 0.131892 61.791 -0.000107765 62.343 -0.000107765H62.943V0.863893H62.499C62.195 0.863893 61.979 0.927892 61.851 1.05589C61.723 1.17589 61.659 1.38389 61.659 1.67989V2.68789H63.123V3.53989H61.659V8.63989H60.651ZM64.6471 8.63989V3.53989H63.7471V2.68789H64.6471V1.65589C64.6471 1.07989 64.7911 0.659892 65.0791 0.395892C65.3671 0.131892 65.7871 -0.000107765 66.3391 -0.000107765H66.9391V0.863893H66.4951C66.1911 0.863893 65.9751 0.927892 65.8471 1.05589C65.7191 1.17589 65.6551 1.38389 65.6551 1.67989V2.68789H67.1191V3.53989H65.6551V8.63989H64.6471Z" fill="#808080"/>
</svg>
