<svg width="24" height="24" viewBox="0 0 24 24" fill="none" xmlns="http://www.w3.org/2000/svg">
<path d="M12.66 3.25012C12.37 2.99012 11.94 2.92012 11.59 3.08012C11.23 3.24012 11 3.60012 11 3.99012V7.99012H10C5.59 7.99012 2 11.5801 2 15.9901V19.9901C2 20.4101 2.27 20.7901 2.67 20.9301C2.78 20.9701 2.89 20.9901 3 20.9901C3.3 20.9901 3.59 20.8601 3.78 20.6101L5.68 18.2401C6.24182 17.5361 6.95543 16.9681 7.76754 16.5784C8.57965 16.1888 9.46927 15.9877 10.37 15.9901H11.01V19.9901C11.01 20.3801 11.24 20.7401 11.6 20.9001C11.96 21.0601 12.38 21.0001 12.67 20.7301L21.67 12.7301C21.88 12.5401 22.01 12.2701 22.01 11.9801C22.01 11.6901 21.89 11.4201 21.67 11.2301L12.66 3.25012ZM13 17.7701V14.0001H10.36C9.15955 13.9972 7.97396 14.2655 6.89172 14.785C5.80949 15.3044 4.85858 16.0617 4.11 17.0001L3.99 17.1501V16.0001C3.99 12.6901 6.68 10.0001 9.99 10.0001H12.99V6.23012L19.48 12.0001L12.99 17.7701H13Z" fill="white"/>
</svg>
