<svg width="99" height="19" viewBox="0 0 99 19" fill="none" xmlns="http://www.w3.org/2000/svg">
<path d="M-0.000439227 18.168V0.287967H3.11956L9.81556 9.38397H8.32756L14.8796 0.287967H17.9996V18.168H14.7116V4.00797L15.9836 4.31997L9.19156 13.368H8.80756L2.18356 4.31997L3.26356 4.00797V18.168H-0.000439227ZM24.6374 18.456C23.7254 18.456 22.9334 18.304 22.2614 18C21.5894 17.696 21.0694 17.264 20.7014 16.704C20.3334 16.128 20.1494 15.464 20.1494 14.712C20.1494 13.992 20.3094 13.352 20.6294 12.792C20.9494 12.216 21.4454 11.736 22.1174 11.352C22.7894 10.968 23.6374 10.696 24.6614 10.536L28.9334 9.83997V12.24L25.2614 12.864C24.6374 12.976 24.1734 13.176 23.8694 13.464C23.5654 13.752 23.4134 14.128 23.4134 14.592C23.4134 15.04 23.5814 15.4 23.9174 15.672C24.2694 15.928 24.7014 16.056 25.2134 16.056C25.8694 16.056 26.4454 15.92 26.9414 15.648C27.4534 15.36 27.8454 14.968 28.1174 14.472C28.4054 13.976 28.5494 13.432 28.5494 12.84V9.47997C28.5494 8.91997 28.3254 8.45597 27.8774 8.08797C27.4454 7.70397 26.8694 7.51197 26.1494 7.51197C25.4774 7.51197 24.8774 7.69597 24.3494 8.06397C23.8374 8.41597 23.4614 8.88797 23.2214 9.47997L20.6534 8.23197C20.9094 7.54397 21.3094 6.95197 21.8534 6.45597C22.4134 5.94397 23.0694 5.54397 23.8214 5.25597C24.5734 4.96797 25.3894 4.82397 26.2694 4.82397C27.3414 4.82397 28.2854 5.02397 29.1014 5.42397C29.9174 5.80797 30.5494 6.35197 30.9974 7.05597C31.4614 7.74397 31.6934 8.55197 31.6934 9.47997V18.168H28.7174V15.936L29.3894 15.888C29.0534 16.448 28.6534 16.92 28.1894 17.304C27.7254 17.672 27.1974 17.96 26.6054 18.168C26.0134 18.36 25.3574 18.456 24.6374 18.456ZM39.8369 18.312C38.3649 18.312 37.2209 17.912 36.4049 17.112C35.6049 16.296 35.2049 15.152 35.2049 13.68V7.91997H32.9489V5.11197H33.1889C33.8289 5.11197 34.3249 4.94397 34.6769 4.60797C35.0289 4.27197 35.2049 3.78397 35.2049 3.14397V2.13597H38.3489V5.11197H41.3489V7.91997H38.3489V13.512C38.3489 13.944 38.4209 14.312 38.5649 14.616C38.7249 14.92 38.9649 15.152 39.2849 15.312C39.6209 15.472 40.0449 15.552 40.5569 15.552C40.6689 15.552 40.7969 15.544 40.9409 15.528C41.1009 15.512 41.2529 15.496 41.3969 15.48V18.168C41.1729 18.2 40.9169 18.232 40.6289 18.264C40.3409 18.296 40.0769 18.312 39.8369 18.312ZM49.271 18.312C47.799 18.312 46.655 17.912 45.839 17.112C45.039 16.296 44.639 15.152 44.639 13.68V7.91997H42.383V5.11197H42.623C43.263 5.11197 43.759 4.94397 44.111 4.60797C44.463 4.27197 44.639 3.78397 44.639 3.14397V2.13597H47.783V5.11197H50.783V7.91997H47.783V13.512C47.783 13.944 47.855 14.312 47.999 14.616C48.159 14.92 48.399 15.152 48.719 15.312C49.055 15.472 49.479 15.552 49.991 15.552C50.103 15.552 50.231 15.544 50.375 15.528C50.535 15.512 50.687 15.496 50.831 15.48V18.168C50.607 18.2 50.351 18.232 50.063 18.264C49.775 18.296 49.511 18.312 49.271 18.312ZM56.8027 18.168V0.287967H63.4507C64.6667 0.287967 65.7387 0.511968 66.6667 0.959969C67.6107 1.39197 68.3467 2.03197 68.8747 2.87997C69.4027 3.71197 69.6667 4.72797 69.6667 5.92797C69.6667 7.15997 69.3707 8.20797 68.7787 9.07197C68.2027 9.93597 67.4187 10.576 66.4267 10.992L70.5307 18.168H66.8347L62.4427 10.32L64.5547 11.568H60.0667V18.168H56.8027ZM60.0667 8.68797H63.4987C64.0907 8.68797 64.6027 8.57597 65.0347 8.35197C65.4667 8.11197 65.8027 7.78397 66.0427 7.36797C66.2827 6.95197 66.4027 6.47197 66.4027 5.92797C66.4027 5.36797 66.2827 4.88797 66.0427 4.48797C65.8027 4.07197 65.4667 3.75197 65.0347 3.52797C64.6027 3.28797 64.0907 3.16797 63.4987 3.16797H60.0667V8.68797ZM71.9259 18.168V5.11197H75.0699V18.168H71.9259ZM71.9259 3.64797V0.287967H75.0699V3.64797H71.9259ZM79.0047 18.168V7.91997H76.7007V5.11197H79.0047V4.67997C79.0047 3.68797 79.2047 2.84797 79.6047 2.15997C80.0207 1.45597 80.5967 0.919968 81.3327 0.551968C82.0687 0.183968 82.9407 -3.19481e-05 83.9487 -3.19481e-05C84.1407 -3.19481e-05 84.3487 0.0159678 84.5727 0.0479674C84.8127 0.0639682 85.0127 0.0879683 85.1727 0.119968V2.83197C85.0127 2.79997 84.8607 2.78397 84.7167 2.78397C84.5887 2.76797 84.4687 2.75997 84.3567 2.75997C83.6527 2.75997 83.1087 2.91997 82.7247 3.23997C82.3407 3.54397 82.1487 4.02397 82.1487 4.67997V5.11197H85.0527V7.91997H82.1487V18.168H79.0047ZM92.5798 18.456C91.2358 18.456 90.0598 18.152 89.0518 17.544C88.0438 16.936 87.2598 16.112 86.6998 15.072C86.1398 14.032 85.8598 12.88 85.8598 11.616C85.8598 10.304 86.1398 9.14397 86.6998 8.13597C87.2758 7.11197 88.0518 6.30397 89.0278 5.71197C90.0198 5.11997 91.1238 4.82397 92.3398 4.82397C93.3638 4.82397 94.2598 4.99197 95.0278 5.32797C95.8118 5.66397 96.4758 6.12797 97.0198 6.71997C97.5638 7.31197 97.9798 7.99197 98.2678 8.75997C98.5558 9.51197 98.6998 10.328 98.6998 11.208C98.6998 11.432 98.6838 11.664 98.6518 11.904C98.6358 12.144 98.5958 12.352 98.5318 12.528H88.4518V10.128H96.7558L95.2678 11.256C95.4118 10.52 95.3718 9.86397 95.1478 9.28797C94.9398 8.71197 94.5878 8.25597 94.0918 7.91997C93.6118 7.58397 93.0278 7.41597 92.3398 7.41597C91.6838 7.41597 91.0998 7.58397 90.5878 7.91997C90.0758 8.23997 89.6838 8.71997 89.4118 9.35997C89.1558 9.98397 89.0598 10.744 89.1238 11.64C89.0598 12.44 89.1638 13.152 89.4358 13.776C89.7238 14.384 90.1398 14.856 90.6838 15.192C91.2438 15.528 91.8838 15.696 92.6038 15.696C93.3238 15.696 93.9318 15.544 94.4278 15.24C94.9398 14.936 95.3398 14.528 95.6278 14.016L98.1718 15.264C97.9158 15.888 97.5158 16.44 96.9718 16.92C96.4278 17.4 95.7798 17.776 95.0278 18.048C94.2918 18.32 93.4758 18.456 92.5798 18.456Z" fill="#1B1C1C"/>
</svg>
