<svg width="80" height="12" viewBox="0 0 80 12" fill="none" xmlns="http://www.w3.org/2000/svg">
<path d="M0.00025785 11.52V0.320019H7.12026V1.69602H1.69626V5.18402H6.64026V6.52802H1.69626V10.144H7.12026V11.52H0.00025785ZM12.6929 11.712C11.9249 11.712 11.2475 11.5307 10.6609 11.168C10.0742 10.8054 9.61555 10.3094 9.28488 9.68002C8.95422 9.05069 8.78888 8.33602 8.78888 7.53602C8.78888 6.73602 8.95422 6.02669 9.28488 5.40802C9.61555 4.77869 10.0742 4.28802 10.6609 3.93602C11.2582 3.57335 11.9409 3.39202 12.7089 3.39202C13.3382 3.39202 13.8875 3.51469 14.3569 3.76002C14.8369 4.00535 15.2102 4.35202 15.4769 4.80002V1.90735e-05H17.1729V11.52H15.6529L15.4769 10.288C15.2209 10.6614 14.8689 10.992 14.4209 11.28C13.9729 11.568 13.3969 11.712 12.6929 11.712ZM12.9969 10.24C13.7222 10.24 14.3142 9.98935 14.7729 9.48802C15.2422 8.98669 15.4769 8.34135 15.4769 7.55202C15.4769 6.75202 15.2422 6.10669 14.7729 5.61602C14.3142 5.11469 13.7222 4.86402 12.9969 4.86402C12.2715 4.86402 11.6742 5.11469 11.2049 5.61602C10.7355 6.10669 10.5009 6.75202 10.5009 7.55202C10.5009 8.07469 10.6075 8.53869 10.8209 8.94402C11.0342 9.34935 11.3275 9.66935 11.7009 9.90402C12.0849 10.128 12.5169 10.24 12.9969 10.24ZM20.2713 2.08002C19.9513 2.08002 19.6846 1.98402 19.4713 1.79202C19.2686 1.58935 19.1673 1.33869 19.1673 1.04002C19.1673 0.741352 19.2686 0.496019 19.4713 0.304019C19.6846 0.101352 19.9513 1.90735e-05 20.2713 1.90735e-05C20.5913 1.90735e-05 20.8526 0.101352 21.0553 0.304019C21.2686 0.496019 21.3753 0.741352 21.3753 1.04002C21.3753 1.33869 21.2686 1.58935 21.0553 1.79202C20.8526 1.98402 20.5913 2.08002 20.2713 2.08002ZM19.4233 11.52V3.58402H21.1193V11.52H19.4233ZM26.6861 11.52C25.9075 11.52 25.2888 11.3334 24.8301 10.96C24.3715 10.576 24.1421 9.89869 24.1421 8.92802V5.00802H22.7821V3.58402H24.1421L24.3501 1.56802H25.8381V3.58402H28.0781V5.00802H25.8381V8.92802C25.8381 9.36535 25.9288 9.66935 26.1101 9.84002C26.3021 10 26.6275 10.08 27.0861 10.08H27.9981V11.52H26.6861ZM33.9221 11.52V0.320019H37.8421C38.7168 0.320019 39.4421 0.469352 40.0181 0.768019C40.5941 1.05602 41.0208 1.45602 41.2981 1.96802C41.5861 2.46935 41.7301 3.04002 41.7301 3.68002C41.7301 4.28802 41.5915 4.84802 41.3141 5.36002C41.0475 5.86135 40.6261 6.26135 40.0501 6.56002C39.4741 6.85869 38.7381 7.00802 37.8421 7.00802H35.6181V11.52H33.9221ZM35.6181 5.61602H37.7621C38.5621 5.61602 39.1328 5.44535 39.4741 5.10402C39.8261 4.75202 40.0021 4.27735 40.0021 3.68002C40.0021 3.06135 39.8261 2.58135 39.4741 2.24002C39.1328 1.88802 38.5621 1.71202 37.7621 1.71202H35.6181V5.61602ZM43.3425 11.52V3.58402H44.8625L45.0065 5.08802C45.2838 4.56535 45.6678 4.15469 46.1585 3.85602C46.6598 3.54669 47.2625 3.39202 47.9665 3.39202V5.16802H47.5025C47.0332 5.16802 46.6118 5.24802 46.2385 5.40802C45.8758 5.55735 45.5825 5.81869 45.3585 6.19202C45.1452 6.55469 45.0385 7.06135 45.0385 7.71202V11.52H43.3425ZM52.9139 11.712C52.1565 11.712 51.4739 11.5414 50.8659 11.2C50.2685 10.848 49.7939 10.3627 49.4419 9.74402C49.0899 9.11469 48.9139 8.38402 48.9139 7.55202C48.9139 6.72002 49.0899 5.99469 49.4419 5.37602C49.8045 4.74669 50.2899 4.26135 50.8979 3.92002C51.5059 3.56802 52.1832 3.39202 52.9299 3.39202C53.6872 3.39202 54.3645 3.56802 54.9619 3.92002C55.5699 4.26135 56.0499 4.74669 56.4019 5.37602C56.7645 5.99469 56.9459 6.72002 56.9459 7.55202C56.9459 8.38402 56.7645 9.11469 56.4019 9.74402C56.0499 10.3627 55.5699 10.848 54.9619 11.2C54.3539 11.5414 53.6712 11.712 52.9139 11.712ZM52.9139 10.256C53.3192 10.256 53.6925 10.1547 54.0339 9.95202C54.3859 9.74935 54.6685 9.45069 54.8819 9.05602C55.0952 8.65069 55.2019 8.14935 55.2019 7.55202C55.2019 6.95469 55.0952 6.45869 54.8819 6.06402C54.6792 5.65869 54.4019 5.35469 54.0499 5.15202C53.7085 4.94935 53.3352 4.84802 52.9299 4.84802C52.5245 4.84802 52.1459 4.94935 51.7939 5.15202C51.4525 5.35469 51.1752 5.65869 50.9619 6.06402C50.7485 6.45869 50.6419 6.95469 50.6419 7.55202C50.6419 8.14935 50.7485 8.65069 50.9619 9.05602C51.1752 9.45069 51.4525 9.74935 51.7939 9.95202C52.1352 10.1547 52.5085 10.256 52.9139 10.256ZM59.18 11.52V5.00802H58.044V3.58402H59.18V2.43202C59.18 1.56802 59.3933 0.949352 59.82 0.576019C60.2573 0.192019 60.8707 1.90735e-05 61.66 1.90735e-05H62.492V1.44002H61.916C61.5427 1.44002 61.276 1.52002 61.116 1.68002C60.956 1.82935 60.876 2.08535 60.876 2.44802V3.58402H65.9V11.52H64.204V5.00802H60.876V11.52H59.18ZM65.068 2.25602C64.748 2.25602 64.4813 2.16002 64.268 1.96802C64.0653 1.76535 63.964 1.50935 63.964 1.20002C63.964 0.901352 64.0653 0.656019 64.268 0.464019C64.4813 0.272019 64.748 0.176019 65.068 0.176019C65.388 0.176019 65.6493 0.272019 65.852 0.464019C66.0653 0.656019 66.172 0.901352 66.172 1.20002C66.172 1.50935 66.0653 1.76535 65.852 1.96802C65.6493 2.16002 65.388 2.25602 65.068 2.25602ZM68.155 11.52V1.90735e-05H69.851V11.52H68.155ZM75.7108 11.712C74.9321 11.712 74.2388 11.5414 73.6308 11.2C73.0334 10.848 72.5641 10.3627 72.2228 9.74402C71.8814 9.12535 71.7108 8.40535 71.7108 7.58402C71.7108 6.75202 71.8761 6.02135 72.2068 5.39202C72.5481 4.76269 73.0174 4.27202 73.6148 3.92002C74.2228 3.56802 74.9268 3.39202 75.7268 3.39202C76.5054 3.39202 77.1828 3.56802 77.7588 3.92002C78.3348 4.26135 78.7828 4.72002 79.1028 5.29602C79.4228 5.87202 79.5828 6.50669 79.5828 7.20002C79.5828 7.30669 79.5774 7.42402 79.5668 7.55202C79.5668 7.66935 79.5614 7.80269 79.5508 7.95202H73.3748C73.4281 8.72002 73.6788 9.30669 74.1268 9.71202C74.5854 10.1067 75.1134 10.304 75.7108 10.304C76.1908 10.304 76.5908 10.1974 76.9108 9.98402C77.2414 9.76002 77.4868 9.46135 77.6468 9.08802H79.3428C79.1294 9.83469 78.7028 10.4587 78.0628 10.96C77.4334 11.4614 76.6494 11.712 75.7108 11.712ZM75.7108 4.78402C75.1454 4.78402 74.6441 4.95469 74.2068 5.29602C73.7694 5.62669 73.5028 6.12802 73.4068 6.80002H77.8868C77.8548 6.18135 77.6361 5.69069 77.2308 5.32802C76.8254 4.96535 76.3188 4.78402 75.7108 4.78402Z" fill="white"/>
</svg>
