<svg width="287" height="59" viewBox="0 0 287 59" fill="none" xmlns="http://www.w3.org/2000/svg">
<g filter="url(#filter0_d_118_1330)">
<rect x="4" y="4" width="279" height="51" rx="25.5" fill="white"/>
<rect x="10" y="10" width="82" height="39" rx="19.5" fill="#660033"/>
<path d="M28.8567 35.5V23.8636H33.4476C34.3302 23.8636 35.0821 24.0322 35.7033 24.3693C36.3245 24.7027 36.798 25.1667 37.1237 25.7614C37.4533 26.3523 37.618 27.0341 37.618 27.8068C37.618 28.5795 37.4514 29.2614 37.118 29.8523C36.7847 30.4432 36.3018 30.9034 35.6692 31.233C35.0404 31.5625 34.279 31.7273 33.3851 31.7273H30.4589V29.7557H32.9874C33.4608 29.7557 33.851 29.6742 34.1578 29.5114C34.4684 29.3447 34.6995 29.1155 34.851 28.8239C35.0063 28.5284 35.0839 28.1894 35.0839 27.8068C35.0839 27.4205 35.0063 27.0833 34.851 26.7955C34.6995 26.5038 34.4684 26.2784 34.1578 26.1193C33.8472 25.9564 33.4533 25.875 32.976 25.875H31.3169V35.5H28.8567ZM43.5232 35.6705C42.6406 35.6705 41.8773 35.483 41.2334 35.108C40.5932 34.7292 40.0989 34.2027 39.7504 33.5284C39.4019 32.8504 39.2277 32.0644 39.2277 31.1705C39.2277 30.2689 39.4019 29.4811 39.7504 28.8068C40.0989 28.1288 40.5932 27.6023 41.2334 27.2273C41.8773 26.8485 42.6406 26.6591 43.5232 26.6591C44.4057 26.6591 45.1671 26.8485 45.8072 27.2273C46.4512 27.6023 46.9474 28.1288 47.2959 28.8068C47.6444 29.4811 47.8186 30.2689 47.8186 31.1705C47.8186 32.0644 47.6444 32.8504 47.2959 33.5284C46.9474 34.2027 46.4512 34.7292 45.8072 35.108C45.1671 35.483 44.4057 35.6705 43.5232 35.6705ZM43.5345 33.7955C43.936 33.7955 44.2713 33.6818 44.5402 33.4545C44.8091 33.2235 45.0118 32.9091 45.1482 32.5114C45.2883 32.1136 45.3584 31.661 45.3584 31.1534C45.3584 30.6458 45.2883 30.1932 45.1482 29.7955C45.0118 29.3977 44.8091 29.0833 44.5402 28.8523C44.2713 28.6212 43.936 28.5057 43.5345 28.5057C43.1292 28.5057 42.7883 28.6212 42.5118 28.8523C42.2391 29.0833 42.0326 29.3977 41.8925 29.7955C41.7561 30.1932 41.6879 30.6458 41.6879 31.1534C41.6879 31.661 41.7561 32.1136 41.8925 32.5114C42.0326 32.9091 42.2391 33.2235 42.5118 33.4545C42.7883 33.6818 43.1292 33.7955 43.5345 33.7955ZM57.2038 29.2614L54.9879 29.3977C54.95 29.2083 54.8686 29.0379 54.7436 28.8864C54.6186 28.7311 54.4538 28.608 54.2493 28.517C54.0485 28.4223 53.808 28.375 53.5277 28.375C53.1527 28.375 52.8364 28.4545 52.5788 28.6136C52.3213 28.7689 52.1925 28.9773 52.1925 29.2386C52.1925 29.447 52.2758 29.6231 52.4425 29.767C52.6091 29.911 52.8951 30.0265 53.3004 30.1136L54.88 30.4318C55.7285 30.6061 56.361 30.8864 56.7777 31.2727C57.1944 31.6591 57.4027 32.1667 57.4027 32.7955C57.4027 33.3674 57.2341 33.8693 56.897 34.3011C56.5637 34.733 56.1054 35.0701 55.522 35.3125C54.9425 35.5511 54.2739 35.6705 53.5163 35.6705C52.361 35.6705 51.4406 35.4299 50.755 34.9489C50.0732 34.464 49.6735 33.8049 49.5561 32.9716L51.9368 32.8466C52.0088 33.1989 52.183 33.4678 52.4595 33.6534C52.736 33.8352 53.0902 33.9261 53.522 33.9261C53.9463 33.9261 54.2872 33.8447 54.5447 33.6818C54.8061 33.5152 54.9387 33.3011 54.9425 33.0398C54.9387 32.8201 54.8459 32.6402 54.6641 32.5C54.4822 32.3561 54.2019 32.2462 53.8232 32.1705L52.3118 31.8693C51.4595 31.6989 50.825 31.4034 50.4084 30.983C49.9955 30.5625 49.7891 30.0265 49.7891 29.375C49.7891 28.8144 49.9406 28.3314 50.2436 27.9261C50.5504 27.5208 50.9804 27.2083 51.5334 26.9886C52.0902 26.7689 52.7417 26.6591 53.4879 26.6591C54.5902 26.6591 55.4576 26.892 56.0902 27.358C56.7266 27.8239 57.0978 28.4583 57.2038 29.2614ZM64.1189 26.7727V28.5909H58.8632V26.7727H64.1189ZM60.0564 24.6818H62.4768V32.8182C62.4768 33.0417 62.5109 33.2159 62.5791 33.3409C62.6473 33.4621 62.742 33.5473 62.8632 33.5966C62.9882 33.6458 63.1321 33.6705 63.295 33.6705C63.4087 33.6705 63.5223 33.661 63.6359 33.642C63.7496 33.6193 63.8367 33.6023 63.8973 33.5909L64.278 35.392C64.1568 35.4299 63.9863 35.4735 63.7666 35.5227C63.5469 35.5758 63.2799 35.608 62.9655 35.6193C62.3821 35.642 61.8708 35.5644 61.4314 35.3864C60.9958 35.2083 60.6568 34.9318 60.4143 34.5568C60.1719 34.1818 60.0526 33.7083 60.0564 33.1364V24.6818ZM73.3976 29.2614L71.1817 29.3977C71.1438 29.2083 71.0624 29.0379 70.9374 28.8864C70.8124 28.7311 70.6476 28.608 70.443 28.517C70.2423 28.4223 70.0018 28.375 69.7214 28.375C69.3464 28.375 69.0302 28.4545 68.7726 28.6136C68.515 28.7689 68.3862 28.9773 68.3862 29.2386C68.3862 29.447 68.4696 29.6231 68.6362 29.767C68.8029 29.911 69.0889 30.0265 69.4942 30.1136L71.0737 30.4318C71.9222 30.6061 72.5548 30.8864 72.9714 31.2727C73.3881 31.6591 73.5964 32.1667 73.5964 32.7955C73.5964 33.3674 73.4279 33.8693 73.0908 34.3011C72.7574 34.733 72.2991 35.0701 71.7158 35.3125C71.1362 35.5511 70.4677 35.6705 69.7101 35.6705C68.5548 35.6705 67.6343 35.4299 66.9487 34.9489C66.2669 34.464 65.8673 33.8049 65.7499 32.9716L68.1305 32.8466C68.2025 33.1989 68.3768 33.4678 68.6533 33.6534C68.9298 33.8352 69.2839 33.9261 69.7158 33.9261C70.14 33.9261 70.4809 33.8447 70.7385 33.6818C70.9999 33.5152 71.1324 33.3011 71.1362 33.0398C71.1324 32.8201 71.0396 32.6402 70.8578 32.5C70.676 32.3561 70.3957 32.2462 70.0169 32.1705L68.5055 31.8693C67.6533 31.6989 67.0188 31.4034 66.6021 30.983C66.1893 30.5625 65.9828 30.0265 65.9828 29.375C65.9828 28.8144 66.1343 28.3314 66.4374 27.9261C66.7442 27.5208 67.1741 27.2083 67.7271 26.9886C68.2839 26.7689 68.9355 26.6591 69.6817 26.6591C70.7839 26.6591 71.6514 26.892 72.2839 27.358C72.9203 27.8239 73.2915 28.4583 73.3976 29.2614Z" fill="white"/>
<path d="M110.32 24.8182L113.154 33.1108H113.269L116.102 24.8182H117.763L114.099 35H112.324L108.66 24.8182H110.32ZM119.783 35V24.8182H123.413C124.201 24.8182 124.856 24.9541 125.376 25.2259C125.9 25.4976 126.291 25.8738 126.55 26.3544C126.808 26.8317 126.937 27.3835 126.937 28.0099C126.937 28.633 126.806 29.1816 126.545 29.6555C126.286 30.1262 125.895 30.4924 125.371 30.7543C124.851 31.0161 124.196 31.147 123.408 31.147H120.658V29.8246H123.268C123.766 29.8246 124.17 29.7533 124.481 29.6108C124.796 29.4683 125.027 29.2611 125.172 28.9893C125.318 28.7176 125.391 28.3911 125.391 28.0099C125.391 27.6255 125.317 27.2924 125.167 27.0107C125.022 26.7289 124.791 26.5135 124.476 26.3643C124.165 26.2119 123.756 26.1357 123.248 26.1357H121.319V35H119.783ZM124.81 30.4062L127.325 35H125.575L123.109 30.4062H124.81Z" fill="#5D5F5F"/>
<path d="M170.768 28.1293H169.217C169.157 27.7978 169.046 27.5062 168.884 27.2543C168.722 27.0024 168.523 26.7886 168.287 26.6129C168.052 26.4373 167.789 26.3047 167.497 26.2152C167.209 26.1257 166.902 26.081 166.577 26.081C165.991 26.081 165.465 26.2285 165.001 26.5234C164.541 26.8184 164.176 27.2509 163.907 27.821C163.642 28.3911 163.51 29.0871 163.51 29.9091C163.51 30.7377 163.642 31.437 163.907 32.0071C164.176 32.5772 164.542 33.008 165.006 33.2997C165.47 33.5914 165.992 33.7372 166.572 33.7372C166.894 33.7372 167.199 33.6941 167.487 33.608C167.779 33.5185 168.042 33.3875 168.277 33.2152C168.513 33.0429 168.712 32.8324 168.874 32.5838C169.04 32.3319 169.154 32.0436 169.217 31.7188L170.768 31.7237C170.685 32.2242 170.525 32.6849 170.286 33.1058C170.051 33.5234 169.747 33.8847 169.376 34.1896C169.008 34.4912 168.587 34.7249 168.113 34.8906C167.639 35.0563 167.122 35.1392 166.562 35.1392C165.681 35.1392 164.895 34.9304 164.206 34.5128C163.516 34.0919 162.973 33.4903 162.575 32.7081C162.181 31.9259 161.983 30.9929 161.983 29.9091C161.983 28.822 162.182 27.889 162.58 27.1101C162.978 26.3279 163.521 25.728 164.211 25.3104C164.9 24.8894 165.684 24.679 166.562 24.679C167.103 24.679 167.606 24.7569 168.074 24.9126C168.544 25.0651 168.967 25.2905 169.341 25.5888C169.716 25.8838 170.026 26.245 170.271 26.6726C170.516 27.0968 170.682 27.5824 170.768 28.1293ZM174.524 24.8182V35H173.037V24.8182H174.524ZM177.074 35V27.3636H178.56V35H177.074ZM177.824 26.1854C177.566 26.1854 177.344 26.0992 177.158 25.9268C176.976 25.7512 176.885 25.5424 176.885 25.3004C176.885 25.0552 176.976 24.8464 177.158 24.674C177.344 24.4983 177.566 24.4105 177.824 24.4105C178.083 24.4105 178.303 24.4983 178.485 24.674C178.671 24.8464 178.764 25.0552 178.764 25.3004C178.764 25.5424 178.671 25.7512 178.485 25.9268C178.303 26.0992 178.083 26.1854 177.824 26.1854ZM181.11 37.8636V27.3636H182.562V28.6016H182.686C182.772 28.4425 182.896 28.2585 183.059 28.0497C183.221 27.8409 183.446 27.6586 183.735 27.5028C184.023 27.3438 184.404 27.2642 184.878 27.2642C185.495 27.2642 186.045 27.42 186.529 27.7315C187.013 28.0431 187.392 28.4922 187.667 29.0788C187.946 29.6655 188.085 30.3714 188.085 31.1967C188.085 32.022 187.947 32.7296 187.672 33.3196C187.397 33.9062 187.019 34.3587 186.539 34.6768C186.058 34.9917 185.51 35.1491 184.893 35.1491C184.429 35.1491 184.05 35.0713 183.755 34.9155C183.463 34.7597 183.234 34.5774 183.069 34.3686C182.903 34.1598 182.775 33.9742 182.686 33.8118H182.596V37.8636H181.11ZM182.567 31.1818C182.567 31.7187 182.644 32.1894 182.8 32.5938C182.956 32.9981 183.181 33.3146 183.476 33.5433C183.771 33.7687 184.133 33.8814 184.56 33.8814C185.004 33.8814 185.375 33.7637 185.674 33.5284C185.972 33.2898 186.197 32.9666 186.35 32.5589C186.506 32.1513 186.584 31.6922 186.584 31.1818C186.584 30.678 186.507 30.2256 186.355 29.8246C186.206 29.4235 185.98 29.107 185.679 28.875C185.38 28.643 185.008 28.527 184.56 28.527C184.129 28.527 183.765 28.638 183.466 28.8601C183.171 29.0821 182.948 29.392 182.795 29.7898C182.643 30.1875 182.567 30.6515 182.567 31.1818ZM196.023 29.228L194.675 29.4666C194.619 29.2943 194.53 29.1302 194.407 28.9744C194.288 28.8187 194.125 28.6911 193.92 28.5916C193.714 28.4922 193.457 28.4425 193.149 28.4425C192.728 28.4425 192.377 28.5369 192.095 28.7259C191.813 28.9115 191.673 29.1518 191.673 29.4467C191.673 29.7019 191.767 29.9074 191.956 30.0632C192.145 30.219 192.45 30.3466 192.871 30.446L194.084 30.7244C194.786 30.8868 195.31 31.1371 195.655 31.4751C196 31.8132 196.172 32.2524 196.172 32.7926C196.172 33.25 196.039 33.6577 195.774 34.0156C195.512 34.3703 195.146 34.6487 194.675 34.8509C194.208 35.053 193.666 35.1541 193.05 35.1541C192.195 35.1541 191.497 34.9718 190.957 34.6072C190.416 34.2393 190.085 33.7173 189.962 33.0412L191.399 32.8224C191.489 33.197 191.673 33.4804 191.951 33.6726C192.229 33.8615 192.592 33.956 193.04 33.956C193.527 33.956 193.916 33.8549 194.208 33.6527C194.5 33.4472 194.646 33.197 194.646 32.902C194.646 32.6634 194.556 32.4628 194.377 32.3004C194.202 32.138 193.931 32.0154 193.567 31.9325L192.274 31.6491C191.562 31.4867 191.035 31.2282 190.693 30.8736C190.355 30.5189 190.186 30.0698 190.186 29.5263C190.186 29.0755 190.312 28.6811 190.564 28.343C190.816 28.005 191.164 27.7415 191.608 27.5526C192.052 27.3603 192.561 27.2642 193.134 27.2642C193.96 27.2642 194.609 27.4432 195.083 27.8011C195.557 28.1558 195.87 28.6314 196.023 29.228Z" fill="#5D5F5F"/>
<path d="M229.693 26.1406V24.8182H237.573V26.1406H234.396V35H232.865V26.1406H229.693ZM240.928 35.169C240.444 35.169 240.007 35.0795 239.616 34.9006C239.224 34.7183 238.915 34.4548 238.686 34.1101C238.46 33.7654 238.348 33.3428 238.348 32.8423C238.348 32.4115 238.431 32.0568 238.596 31.7784C238.762 31.5 238.986 31.2796 239.268 31.1172C239.549 30.9548 239.864 30.8321 240.212 30.7493C240.56 30.6664 240.915 30.6035 241.276 30.5604C241.733 30.5073 242.105 30.4643 242.39 30.4311C242.675 30.3946 242.882 30.3366 243.011 30.2571C243.14 30.1776 243.205 30.0483 243.205 29.8693V29.8345C243.205 29.4003 243.082 29.0639 242.837 28.8253C242.595 28.5866 242.234 28.4673 241.753 28.4673C241.253 28.4673 240.858 28.5784 240.57 28.8004C240.285 29.0192 240.088 29.2628 239.978 29.5312L238.581 29.2131C238.747 28.7491 238.989 28.3745 239.307 28.0895C239.629 27.8011 239.998 27.5923 240.416 27.4631C240.834 27.3305 241.273 27.2642 241.733 27.2642C242.038 27.2642 242.362 27.3007 242.703 27.3736C243.048 27.4432 243.369 27.5724 243.667 27.7614C243.969 27.9503 244.216 28.2204 244.408 28.5717C244.6 28.9197 244.697 29.3722 244.697 29.929V35H243.245V33.956H243.185C243.089 34.1482 242.945 34.3371 242.753 34.5227C242.56 34.7083 242.313 34.8625 242.012 34.9851C241.71 35.1077 241.349 35.169 240.928 35.169ZM241.251 33.9759C241.662 33.9759 242.013 33.8946 242.305 33.7322C242.6 33.5698 242.824 33.3577 242.976 33.0959C243.132 32.8307 243.21 32.5473 243.21 32.2457V31.2614C243.157 31.3144 243.054 31.3641 242.902 31.4105C242.753 31.4536 242.582 31.4917 242.39 31.5249C242.197 31.5547 242.01 31.5829 241.828 31.6094C241.646 31.6326 241.493 31.6525 241.371 31.669C241.082 31.7055 240.819 31.7668 240.58 31.853C240.345 31.9392 240.156 32.0634 240.013 32.2259C239.874 32.3849 239.804 32.5971 239.804 32.8622C239.804 33.2301 239.94 33.5085 240.212 33.6974C240.484 33.883 240.83 33.9759 241.251 33.9759ZM250.428 38.0227C249.822 38.0227 249.3 37.9432 248.862 37.7841C248.428 37.625 248.073 37.4145 247.798 37.1527C247.523 36.8909 247.318 36.6042 247.182 36.2926L248.459 35.7656C248.549 35.9115 248.668 36.0656 248.817 36.228C248.97 36.3937 249.175 36.5346 249.434 36.6506C249.696 36.7666 250.032 36.8246 250.443 36.8246C251.007 36.8246 251.472 36.687 251.84 36.4119C252.208 36.1402 252.392 35.706 252.392 35.1094V33.608H252.297C252.208 33.7704 252.079 33.951 251.91 34.1499C251.744 34.3487 251.515 34.5211 251.224 34.6669C250.932 34.8127 250.552 34.8857 250.085 34.8857C249.482 34.8857 248.938 34.7448 248.454 34.4631C247.974 34.178 247.593 33.7588 247.311 33.2053C247.033 32.6484 246.893 31.964 246.893 31.152C246.893 30.34 247.031 29.6439 247.306 29.0639C247.584 28.4839 247.966 28.0398 248.449 27.7315C248.933 27.42 249.482 27.2642 250.095 27.2642C250.569 27.2642 250.952 27.3438 251.243 27.5028C251.535 27.6586 251.762 27.8409 251.925 28.0497C252.09 28.2585 252.218 28.4425 252.307 28.6016H252.417V27.3636H253.873V35.169C253.873 35.8253 253.721 36.3639 253.416 36.7848C253.111 37.2057 252.699 37.5173 252.178 37.7195C251.661 37.9216 251.078 38.0227 250.428 38.0227ZM250.413 33.6527C250.841 33.6527 251.202 33.5533 251.497 33.3544C251.795 33.1522 252.021 32.8639 252.173 32.4893C252.329 32.1115 252.407 31.6591 252.407 31.1321C252.407 30.6184 252.331 30.166 252.178 29.7749C252.026 29.3838 251.802 29.0788 251.507 28.8601C251.212 28.638 250.847 28.527 250.413 28.527C249.966 28.527 249.593 28.643 249.295 28.875C248.996 29.1037 248.771 29.4152 248.618 29.8097C248.469 30.2041 248.395 30.6449 248.395 31.1321C248.395 31.6326 248.471 32.0717 248.623 32.4496C248.776 32.8274 249.001 33.1224 249.3 33.3345C249.601 33.5466 249.972 33.6527 250.413 33.6527ZM262.139 29.228L260.792 29.4666C260.736 29.2943 260.646 29.1302 260.524 28.9744C260.404 28.8187 260.242 28.6911 260.036 28.5916C259.831 28.4922 259.574 28.4425 259.266 28.4425C258.845 28.4425 258.494 28.5369 258.212 28.7259C257.93 28.9115 257.789 29.1518 257.789 29.4467C257.789 29.7019 257.884 29.9074 258.073 30.0632C258.262 30.219 258.566 30.3466 258.987 30.446L260.2 30.7244C260.903 30.8868 261.427 31.1371 261.771 31.4751C262.116 31.8132 262.289 32.2524 262.289 32.7926C262.289 33.25 262.156 33.6577 261.891 34.0156C261.629 34.3703 261.263 34.6487 260.792 34.8509C260.325 35.053 259.783 35.1541 259.166 35.1541C258.311 35.1541 257.614 34.9718 257.073 34.6072C256.533 34.2393 256.202 33.7173 256.079 33.0412L257.516 32.8224C257.605 33.197 257.789 33.4804 258.068 33.6726C258.346 33.8615 258.709 33.956 259.156 33.956C259.644 33.956 260.033 33.8549 260.325 33.6527C260.616 33.4472 260.762 33.197 260.762 32.902C260.762 32.6634 260.673 32.4628 260.494 32.3004C260.318 32.138 260.048 32.0154 259.683 31.9325L258.391 31.6491C257.678 31.4867 257.151 31.2282 256.81 30.8736C256.472 30.5189 256.303 30.0698 256.303 29.5263C256.303 29.0755 256.429 28.6811 256.681 28.343C256.932 28.005 257.28 27.7415 257.725 27.5526C258.169 27.3603 258.677 27.2642 259.251 27.2642C260.076 27.2642 260.726 27.4432 261.2 27.8011C261.674 28.1558 261.987 28.6314 262.139 29.228Z" fill="#5D5F5F"/>
</g>
<defs>
<filter id="filter0_d_118_1330" x="0" y="0" width="287" height="59" filterUnits="userSpaceOnUse" color-interpolation-filters="sRGB">
<feFlood flood-opacity="0" result="BackgroundImageFix"/>
<feColorMatrix in="SourceAlpha" type="matrix" values="0 0 0 0 0 0 0 0 0 0 0 0 0 0 0 0 0 0 127 0" result="hardAlpha"/>
<feOffset/>
<feGaussianBlur stdDeviation="2"/>
<feComposite in2="hardAlpha" operator="out"/>
<feColorMatrix type="matrix" values="0 0 0 0 0 0 0 0 0 0 0 0 0 0 0 0 0 0 0.12 0"/>
<feBlend mode="normal" in2="BackgroundImageFix" result="effect1_dropShadow_118_1330"/>
<feBlend mode="normal" in="SourceGraphic" in2="effect1_dropShadow_118_1330" result="shape"/>
</filter>
</defs>
</svg>
