<svg viewBox="0 0 35 39" fill="none" xmlns="http://www.w3.org/2000/svg">
<path d="M21.5003 12.8333H13.5003C12.767 12.8333 12.167 13.4333 12.167 14.1666V25.4999C12.167 25.7399 12.2937 25.9599 12.5003 26.0799C12.707 26.1999 12.9603 26.1999 13.167 26.0799L17.5003 23.5999L21.8337 26.0799C21.9337 26.1399 22.047 26.1666 22.167 26.1666C22.287 26.1666 22.4003 26.1399 22.5003 26.0799C22.707 25.9599 22.8337 25.7399 22.8337 25.4999V14.1666C22.8337 13.4333 22.2337 12.8333 21.5003 12.8333ZM21.5003 18.1666V24.3533L17.8337 22.2599C17.7336 22.2013 17.6197 22.1705 17.5037 22.1705C17.3877 22.1705 17.2738 22.2013 17.1737 22.2599L13.507 24.3533V14.1666H21.507V18.1666H21.5003Z" fill="black"/>
</svg>
