<svg width="35" height="39" viewBox="0 0 35 39" fill="none" xmlns="http://www.w3.org/2000/svg">
<rect width="35" height="39" rx="12" fill="white"/>
<path d="M12.7199 19.8266L14.0799 21.0466L13.5266 22.98L12.8599 25.3133C12.7799 25.58 12.8799 25.8733 13.1066 26.0333C13.3333 26.2 13.64 26.2066 13.8666 26.0466L15.8666 24.7133L17.4999 23.6266L19.1333 24.7133L21.1333 26.0466C21.2459 26.123 21.3793 26.1627 21.5154 26.1604C21.6514 26.158 21.7834 26.1136 21.8933 26.0333C22.1199 25.8666 22.2199 25.58 22.1399 25.3133L21.4733 22.98L20.9199 21.0466L22.2799 19.8266L23.9466 18.3266C24.1466 18.1466 24.2199 17.8666 24.1333 17.62C24.0466 17.3666 23.8199 17.1933 23.5533 17.1666L21.4533 17L19.7466 16.8666L18.0999 13.2266C18.0473 13.1098 17.9621 13.0106 17.8545 12.941C17.7469 12.8715 17.6214 12.8345 17.4933 12.8345C17.3651 12.8345 17.2397 12.8715 17.1321 12.941C17.0245 13.0106 16.9392 13.1098 16.8866 13.2266L15.2399 16.8666L13.5333 17L11.4333 17.1666C11.1666 17.1866 10.9399 17.3666 10.8533 17.62C10.7666 17.8733 10.8399 18.1533 11.0399 18.3266L12.7066 19.8266H12.7199ZM13.6466 18.3266L15.3266 18.1933L15.7399 18.16L16.1333 18.1266L16.6933 16.8866L17.4933 15.1133L18.2933 16.8866L18.8533 18.1266L19.2466 18.16L19.66 18.1933L21.34 18.3266L21.8933 18.3733L21.3799 18.8333L19.7133 20.3333L19.4066 20.6133L19.5199 21.0133L20.3533 23.9333L17.86 22.2733L17.4933 22.0266L17.1266 22.2733L14.6333 23.9333L15.4666 21.0133L15.5799 20.6133L15.2733 20.3333L13.6066 18.8333L13.0933 18.3733L13.6466 18.3266Z" fill="#808080"/>
</svg>
