<svg width="31" height="10" viewBox="0 0 31 10" fill="none" xmlns="http://www.w3.org/2000/svg">
<path d="M-4.68353e-05 8.93994V-5.8651e-05H3.16195C3.75395 -5.8651e-05 4.27445 0.112441 4.72345 0.337441C5.17245 0.562441 5.52245 0.882441 5.77345 1.29744C6.02445 1.71244 6.14995 2.20194 6.14995 2.76594C6.14995 3.32594 6.02395 3.81194 5.77195 4.22394C5.51995 4.63594 5.17095 4.95494 4.72495 5.18094C4.27895 5.40694 3.75795 5.51994 3.16195 5.51994H1.18495V8.93994H-4.68353e-05ZM1.18495 4.43994H3.20095C3.55495 4.43994 3.86395 4.37144 4.12795 4.23444C4.39195 4.09744 4.59745 3.90244 4.74445 3.64944C4.89145 3.39644 4.96495 3.09894 4.96495 2.75694C4.96495 2.41294 4.89145 2.11594 4.74445 1.86594C4.59745 1.61594 4.39195 1.42244 4.12795 1.28544C3.86395 1.14844 3.55495 1.07994 3.20095 1.07994H1.18495V4.43994ZM10.44 9.08394C9.82195 9.08394 9.26045 8.93744 8.75545 8.64444C8.25045 8.35144 7.84895 7.94994 7.55095 7.43994C7.25295 6.92994 7.10395 6.34994 7.10395 5.69994C7.10395 5.05394 7.25145 4.47794 7.54645 3.97194C7.84145 3.46594 8.23995 3.06644 8.74195 2.77344C9.24395 2.48044 9.80995 2.33394 10.44 2.33394C11.07 2.33394 11.6355 2.47894 12.1365 2.76894C12.6375 3.05894 13.034 3.45694 13.326 3.96294C13.618 4.46894 13.764 5.04794 13.764 5.69994C13.764 6.35594 13.6135 6.93894 13.3125 7.44894C13.0115 7.95894 12.6105 8.35894 12.1095 8.64894C11.6085 8.93894 11.052 9.08394 10.44 9.08394ZM10.44 8.00394C10.846 8.00394 11.21 7.90394 11.532 7.70394C11.854 7.50394 12.109 7.22894 12.297 6.87894C12.485 6.52894 12.579 6.13594 12.579 5.69994C12.579 5.26394 12.485 4.87444 12.297 4.53144C12.109 4.18844 11.854 3.91644 11.532 3.71544C11.21 3.51444 10.846 3.41394 10.44 3.41394C10.034 3.41394 9.66945 3.51444 9.34645 3.71544C9.02345 3.91644 8.76645 4.18844 8.57545 4.53144C8.38445 4.87444 8.28895 5.26394 8.28895 5.69994C8.28895 6.13594 8.38445 6.52894 8.57545 6.87894C8.76645 7.22894 9.02345 7.50394 9.34645 7.70394C9.66945 7.90394 10.034 8.00394 10.44 8.00394ZM17.532 9.08394C16.89 9.08394 16.3285 8.92444 15.8475 8.60544C15.3665 8.28644 15.024 7.85394 14.82 7.30794L15.717 6.88194C15.897 7.26394 16.1475 7.56694 16.4685 7.79094C16.7895 8.01494 17.144 8.12694 17.532 8.12694C17.884 8.12694 18.176 8.04344 18.408 7.87644C18.64 7.70944 18.756 7.48894 18.756 7.21494C18.756 7.02294 18.702 6.86894 18.594 6.75294C18.486 6.63694 18.357 6.54494 18.207 6.47694C18.057 6.40894 17.916 6.35794 17.784 6.32394L16.812 6.04794C16.234 5.88394 15.81 5.64544 15.54 5.33244C15.27 5.01944 15.135 4.65494 15.135 4.23894C15.135 3.85494 15.233 3.51994 15.429 3.23394C15.625 2.94794 15.893 2.72644 16.233 2.56944C16.573 2.41244 16.954 2.33394 17.376 2.33394C17.944 2.33394 18.455 2.47794 18.909 2.76594C19.363 3.05394 19.684 3.45494 19.872 3.96894L18.963 4.39494C18.819 4.05694 18.603 3.79094 18.315 3.59694C18.027 3.40294 17.705 3.30594 17.349 3.30594C17.021 3.30594 16.7595 3.38694 16.5645 3.54894C16.3695 3.71094 16.272 3.91794 16.272 4.16994C16.272 4.35394 16.32 4.50294 16.416 4.61694C16.512 4.73094 16.629 4.81894 16.767 4.88094C16.905 4.94294 17.036 4.99194 17.16 5.02794L18.222 5.33994C18.748 5.49394 19.1565 5.73144 19.4475 6.05244C19.7385 6.37344 19.884 6.75494 19.884 7.19694C19.884 7.56294 19.784 7.88894 19.584 8.17494C19.384 8.46094 19.108 8.68394 18.756 8.84394C18.404 9.00394 17.996 9.08394 17.532 9.08394ZM23.982 9.01194C23.352 9.01194 22.8655 8.83244 22.5225 8.47344C22.1795 8.11444 22.008 7.60494 22.008 6.94494V3.54294H20.841V2.47794H21.081C21.369 2.47794 21.5955 2.38944 21.7605 2.21244C21.9255 2.03544 22.008 1.80294 22.008 1.51494V0.989941H23.133V2.47794H24.579V3.54294H23.133V6.91494C23.133 7.13294 23.167 7.32194 23.235 7.48194C23.303 7.64194 23.4165 7.76694 23.5755 7.85694C23.7345 7.94694 23.944 7.99194 24.204 7.99194C24.266 7.99194 24.339 7.98794 24.423 7.97994C24.507 7.97194 24.583 7.96394 24.651 7.95594V8.93994C24.549 8.96194 24.434 8.97944 24.306 8.99244C24.178 9.00544 24.07 9.01194 23.982 9.01194ZM28.416 9.08394C27.774 9.08394 27.2125 8.92444 26.7315 8.60544C26.2505 8.28644 25.908 7.85394 25.704 7.30794L26.601 6.88194C26.781 7.26394 27.0315 7.56694 27.3525 7.79094C27.6735 8.01494 28.028 8.12694 28.416 8.12694C28.768 8.12694 29.06 8.04344 29.292 7.87644C29.524 7.70944 29.64 7.48894 29.64 7.21494C29.64 7.02294 29.586 6.86894 29.478 6.75294C29.37 6.63694 29.241 6.54494 29.091 6.47694C28.941 6.40894 28.8 6.35794 28.668 6.32394L27.696 6.04794C27.118 5.88394 26.694 5.64544 26.424 5.33244C26.154 5.01944 26.019 4.65494 26.019 4.23894C26.019 3.85494 26.117 3.51994 26.313 3.23394C26.509 2.94794 26.777 2.72644 27.117 2.56944C27.457 2.41244 27.838 2.33394 28.26 2.33394C28.828 2.33394 29.339 2.47794 29.793 2.76594C30.247 3.05394 30.568 3.45494 30.756 3.96894L29.847 4.39494C29.703 4.05694 29.487 3.79094 29.199 3.59694C28.911 3.40294 28.589 3.30594 28.233 3.30594C27.905 3.30594 27.6435 3.38694 27.4485 3.54894C27.2535 3.71094 27.156 3.91794 27.156 4.16994C27.156 4.35394 27.204 4.50294 27.3 4.61694C27.396 4.73094 27.513 4.81894 27.651 4.88094C27.789 4.94294 27.92 4.99194 28.044 5.02794L29.106 5.33994C29.632 5.49394 30.0405 5.73144 30.3315 6.05244C30.6225 6.37344 30.768 6.75494 30.768 7.19694C30.768 7.56294 30.668 7.88894 30.468 8.17494C30.268 8.46094 29.992 8.68394 29.64 8.84394C29.288 9.00394 28.88 9.08394 28.416 9.08394Z" fill="#554247"/>
</svg>
