<svg width="100" height="72" viewBox="0 0 100 72" fill="none" xmlns="http://www.w3.org/2000/svg">
<rect width="100" height="72" rx="12" fill="#EFEDED"/>
<path d="M50.01 36.24C48.8287 36.24 47.7917 35.9183 46.899 35.275C46.0063 34.6317 45.31 33.7319 44.81 32.5757C44.31 31.4195 44.06 30.0728 44.06 28.5357C44.06 26.9986 44.3087 25.6544 44.8063 24.5032C45.3038 23.352 45.9963 22.457 46.8838 21.8182C47.7713 21.1794 48.8067 20.86 49.99 20.86C51.1833 20.86 52.2242 21.18 53.1128 21.82C54.0013 22.46 54.6947 23.3567 55.1928 24.51C55.6909 25.6633 55.94 27.0067 55.94 28.54C55.94 30.0733 55.6933 31.4183 55.2 32.575C54.7066 33.7317 54.015 34.6317 53.125 35.275C52.235 35.9183 51.1966 36.24 50.01 36.24ZM50.015 34.09C50.7516 34.09 51.3866 33.8633 51.92 33.41C52.4533 32.9567 52.8666 32.315 53.16 31.485C53.4533 30.655 53.6 29.6733 53.6 28.54C53.6 27.4067 53.4533 26.4267 53.16 25.6C52.8666 24.7733 52.4516 24.135 51.915 23.685C51.3783 23.235 50.7371 23.01 49.9914 23.01C49.2571 23.01 48.6233 23.235 48.09 23.685C47.5566 24.135 47.1433 24.7733 46.85 25.6C46.5566 26.4267 46.41 27.4064 46.41 28.5391C46.41 29.6597 46.5566 30.6367 46.85 31.47C47.1433 32.3033 47.56 32.9483 48.1 33.405C48.64 33.8617 49.2783 34.09 50.015 34.09Z" fill="#1B1C1C"/>
<path d="M34.8076 53V44.06H37.9696C38.5616 44.06 39.0821 44.1725 39.5311 44.3975C39.9801 44.6225 40.3301 44.9425 40.5811 45.3575C40.8321 45.7725 40.9576 46.262 40.9576 46.826C40.9576 47.386 40.8316 47.872 40.5796 48.284C40.3276 48.696 39.9786 49.015 39.5326 49.241C39.0866 49.467 38.5656 49.58 37.9696 49.58H35.9926V53H34.8076ZM35.9926 48.5H38.0086C38.3626 48.5 38.6716 48.4315 38.9356 48.2945C39.1996 48.1575 39.4051 47.9625 39.5521 47.7095C39.6991 47.4565 39.7726 47.159 39.7726 46.817C39.7726 46.473 39.6991 46.176 39.5521 45.926C39.4051 45.676 39.1996 45.4825 38.9356 45.3455C38.6716 45.2085 38.3626 45.14 38.0086 45.14H35.9926V48.5ZM45.2476 53.144C44.6296 53.144 44.0681 52.9975 43.5631 52.7045C43.0581 52.4115 42.6566 52.01 42.3586 51.5C42.0606 50.99 41.9116 50.41 41.9116 49.76C41.9116 49.114 42.0591 48.538 42.3541 48.032C42.6491 47.526 43.0476 47.1265 43.5496 46.8335C44.0516 46.5405 44.6176 46.394 45.2476 46.394C45.8776 46.394 46.4431 46.539 46.9441 46.829C47.4451 47.119 47.8416 47.517 48.1336 48.023C48.4256 48.529 48.5716 49.108 48.5716 49.76C48.5716 50.416 48.4211 50.999 48.1201 51.509C47.8191 52.019 47.4181 52.419 46.9171 52.709C46.4161 52.999 45.8596 53.144 45.2476 53.144ZM45.2476 52.064C45.6536 52.064 46.0176 51.964 46.3396 51.764C46.6616 51.564 46.9166 51.289 47.1046 50.939C47.2926 50.589 47.3866 50.196 47.3866 49.76C47.3866 49.324 47.2926 48.9345 47.1046 48.5915C46.9166 48.2485 46.6616 47.9765 46.3396 47.7755C46.0176 47.5745 45.6536 47.474 45.2476 47.474C44.8416 47.474 44.4771 47.5745 44.1541 47.7755C43.8311 47.9765 43.5741 48.2485 43.3831 48.5915C43.1921 48.9345 43.0966 49.324 43.0966 49.76C43.0966 50.196 43.1921 50.589 43.3831 50.939C43.5741 51.289 43.8311 51.564 44.1541 51.764C44.4771 51.964 44.8416 52.064 45.2476 52.064ZM52.3396 53.144C51.6976 53.144 51.1361 52.9845 50.6551 52.6655C50.1741 52.3465 49.8316 51.914 49.6276 51.368L50.5246 50.942C50.7046 51.324 50.9551 51.627 51.2761 51.851C51.5971 52.075 51.9516 52.187 52.3396 52.187C52.6916 52.187 52.9836 52.1035 53.2156 51.9365C53.4476 51.7695 53.5636 51.549 53.5636 51.275C53.5636 51.083 53.5096 50.929 53.4016 50.813C53.2936 50.697 53.1646 50.605 53.0146 50.537C52.8646 50.469 52.7236 50.418 52.5916 50.384L51.6196 50.108C51.0416 49.944 50.6176 49.7055 50.3476 49.3925C50.0776 49.0795 49.9426 48.715 49.9426 48.299C49.9426 47.915 50.0406 47.58 50.2366 47.294C50.4326 47.008 50.7006 46.7865 51.0406 46.6295C51.3806 46.4725 51.7616 46.394 52.1836 46.394C52.7516 46.394 53.2626 46.538 53.7166 46.826C54.1706 47.114 54.4916 47.515 54.6796 48.029L53.7706 48.455C53.6266 48.117 53.4106 47.851 53.1226 47.657C52.8346 47.463 52.5126 47.366 52.1566 47.366C51.8286 47.366 51.5671 47.447 51.3721 47.609C51.1771 47.771 51.0796 47.978 51.0796 48.23C51.0796 48.414 51.1276 48.563 51.2236 48.677C51.3196 48.791 51.4366 48.879 51.5746 48.941C51.7126 49.003 51.8436 49.052 51.9676 49.088L53.0296 49.4C53.5556 49.554 53.9641 49.7915 54.2551 50.1125C54.5461 50.4335 54.6916 50.815 54.6916 51.257C54.6916 51.623 54.5916 51.949 54.3916 52.235C54.1916 52.521 53.9156 52.744 53.5636 52.904C53.2116 53.064 52.8036 53.144 52.3396 53.144ZM58.7896 53.072C58.1596 53.072 57.6731 52.8925 57.3301 52.5335C56.9871 52.1745 56.8156 51.665 56.8156 51.005V47.603H55.6486V46.538H55.8886C56.1766 46.538 56.4031 46.4495 56.5681 46.2725C56.7331 46.0955 56.8156 45.863 56.8156 45.575V45.05H57.9406V46.538H59.3866V47.603H57.9406V50.975C57.9406 51.193 57.9746 51.382 58.0426 51.542C58.1106 51.702 58.2241 51.827 58.3831 51.917C58.5421 52.007 58.7516 52.052 59.0116 52.052C59.0736 52.052 59.1466 52.048 59.2306 52.04C59.3146 52.032 59.3906 52.024 59.4586 52.016V53C59.3566 53.022 59.2416 53.0395 59.1136 53.0525C58.9856 53.0655 58.8776 53.072 58.7896 53.072ZM63.2236 53.144C62.5816 53.144 62.0201 52.9845 61.5391 52.6655C61.0581 52.3465 60.7156 51.914 60.5116 51.368L61.4086 50.942C61.5886 51.324 61.8391 51.627 62.1601 51.851C62.4811 52.075 62.8356 52.187 63.2236 52.187C63.5756 52.187 63.8676 52.1035 64.0996 51.9365C64.3316 51.7695 64.4476 51.549 64.4476 51.275C64.4476 51.083 64.3936 50.929 64.2856 50.813C64.1776 50.697 64.0486 50.605 63.8986 50.537C63.7486 50.469 63.6076 50.418 63.4756 50.384L62.5036 50.108C61.9256 49.944 61.5016 49.7055 61.2316 49.3925C60.9616 49.0795 60.8266 48.715 60.8266 48.299C60.8266 47.915 60.9246 47.58 61.1206 47.294C61.3166 47.008 61.5846 46.7865 61.9246 46.6295C62.2646 46.4725 62.6456 46.394 63.0676 46.394C63.6356 46.394 64.1466 46.538 64.6006 46.826C65.0546 47.114 65.3756 47.515 65.5636 48.029L64.6546 48.455C64.5106 48.117 64.2946 47.851 64.0066 47.657C63.7186 47.463 63.3966 47.366 63.0406 47.366C62.7126 47.366 62.4511 47.447 62.2561 47.609C62.0611 47.771 61.9636 47.978 61.9636 48.23C61.9636 48.414 62.0116 48.563 62.1076 48.677C62.2036 48.791 62.3206 48.879 62.4586 48.941C62.5966 49.003 62.7276 49.052 62.8516 49.088L63.9136 49.4C64.4396 49.554 64.8481 49.7915 65.1391 50.1125C65.4301 50.4335 65.5756 50.815 65.5756 51.257C65.5756 51.623 65.4756 51.949 65.2756 52.235C65.0756 52.521 64.7996 52.744 64.4476 52.904C64.0956 53.064 63.6876 53.144 63.2236 53.144Z" fill="#554247"/>
</svg>
