<svg width="12" height="16" viewBox="0 0 12 16" fill="none" xmlns="http://www.w3.org/2000/svg">
<path d="M5.95039 15.3799C4.76909 15.3799 3.7321 15.0582 2.83942 14.4149C1.94673 13.7716 1.25039 12.8718 0.750391 11.7156C0.250391 10.5594 0.000390639 9.21274 0.000390639 7.6756C0.000390639 6.13846 0.249155 4.7943 0.746683 3.64311C1.24421 2.49192 1.93672 1.59692 2.8242 0.958108C3.71168 0.319297 4.74708 -0.000108004 5.93039 -0.000108004C7.12372 -0.000108004 8.16466 0.319892 9.05321 0.959893C9.94175 1.59989 10.6351 2.49656 11.1332 3.64989C11.6313 4.80323 11.8804 6.14656 11.8804 7.67989C11.8804 9.21323 11.6337 10.5582 11.1404 11.7149C10.6471 12.8716 9.95539 13.7716 9.06539 14.4149C8.17539 15.0582 7.13706 15.3799 5.95039 15.3799ZM5.95539 13.2299C6.69206 13.2299 7.32706 13.0032 7.86039 12.5499C8.39372 12.0966 8.80706 11.4549 9.10039 10.6249C9.39372 9.79489 9.54039 8.81323 9.54039 7.67989C9.54039 6.54656 9.39372 5.56656 9.10039 4.73989C8.80706 3.91323 8.39206 3.27489 7.85539 2.82489C7.31872 2.37489 6.67752 2.14989 5.93179 2.14989C5.19752 2.14989 4.56372 2.37489 4.03039 2.82489C3.49706 3.27489 3.08372 3.91323 2.79039 4.73989C2.49706 5.56656 2.35039 6.54627 2.35039 7.67903C2.35039 8.7996 2.49706 9.77656 2.79039 10.6099C3.08372 11.4432 3.50039 12.0882 4.04039 12.5449C4.58039 13.0016 5.21872 13.2299 5.95539 13.2299Z" fill="#1B1C1C"/>
</svg>
