<svg width="24" height="24" viewBox="0 0 24 24" fill="none" xmlns="http://www.w3.org/2000/svg">
<path d="M17.7629 16.5295C17.605 16.5295 17.4569 16.4802 17.3188 16.3815C16.9931 16.1348 16.924 15.671 17.1708 15.3453C18.4142 13.6874 18.6806 11.4868 17.8813 9.58215C17.7234 9.20715 17.901 8.77294 18.276 8.61505C18.651 8.45715 19.0852 8.63478 19.2431 9.00978C20.2497 11.3979 19.9043 14.171 18.355 16.2433C18.2069 16.4308 17.9898 16.5295 17.7629 16.5295Z" fill="white"/>
<path d="M19.5695 18.9967C19.4116 18.9967 19.2636 18.9473 19.1254 18.8486C18.7998 18.6019 18.7307 18.1381 18.9774 17.8125C21.0892 15 21.5531 11.2302 20.1912 7.98352C20.0333 7.60852 20.211 7.17431 20.586 7.01641C20.961 6.85852 21.3952 7.03615 21.5531 7.41115C23.1221 11.1414 22.5892 15.4638 20.1616 18.7006C20.0235 18.898 19.7965 18.9967 19.5695 18.9967Z" fill="white"/>
<path d="M13.8557 12.7894C14.4774 12.1677 15.5432 12.6118 15.5432 13.4901V16.3815C15.5432 18.0789 14.9313 19.3519 13.8359 19.9638C13.3919 20.2105 12.8984 20.3289 12.3853 20.3289C11.5958 20.3289 10.7471 20.0624 9.8787 19.5197L9.24712 19.1249C8.71423 18.7894 8.62541 18.0394 9.06949 17.5953L13.8557 12.7894Z" fill="white"/>
<path d="M21.4834 2.20056C21.1873 1.9045 20.7038 1.9045 20.4077 2.20056L15.5229 7.08542C15.4637 5.50648 14.8716 4.32227 13.8255 3.74003C12.7202 3.12819 11.3091 3.28608 9.86827 4.18411L6.99656 5.98016C6.79919 6.09858 6.57221 6.16766 6.34524 6.16766H5.42748H4.93406C2.5459 6.16766 1.2334 7.48016 1.2334 9.86832V13.8157C1.2334 16.2038 2.5459 17.5163 4.93406 17.5163H5.09195L2.19064 20.4177C1.89458 20.7137 1.89458 21.1973 2.19064 21.4933C2.34853 21.6315 2.53603 21.7104 2.7334 21.7104C2.93077 21.7104 3.11827 21.6315 3.26629 21.4835L21.4834 3.26634C21.7893 2.97029 21.7893 2.49661 21.4834 2.20056Z" fill="white"/>
</svg>
